<?xml version="1.0" encoding="UTF-8"?> <svg xmlns="http://www.w3.org/2000/svg" width="305" height="27" viewBox="0 0 305 27" fill="none"> <path d="M24.6234 22.8528C25.6522 22.8528 26.4873 23.6861 26.4873 24.7126C26.4873 25.7391 25.6522 26.5724 24.6234 26.5724H13.2467C9.60368 26.5724 6.28747 25.087 3.89109 22.6898C1.48866 20.2926 0 16.9897 0 13.3547C0 9.71962 1.48866 6.41065 3.89109 4.0195C6.29352 1.62231 9.60368 0.136904 13.2467 0.136904L24.6234 0.136904C25.6522 0.136904 26.4873 0.970174 26.4873 1.99668C26.4873 3.02318 25.6522 3.85647 24.6234 3.85647L13.2467 3.85647C10.6264 3.85647 8.24815 4.92524 6.52348 6.64614C4.79881 8.36704 3.72771 10.7461 3.72771 13.3547C3.72771 15.9632 4.79881 18.3422 6.52953 20.0631C8.2542 21.784 10.6385 22.8589 13.2527 22.8589H24.6234V22.8528ZM291.759 3.85043L279.941 3.85043V22.8528H291.759C294.374 22.8528 296.758 21.784 298.483 20.0571C300.207 18.3362 301.284 15.9571 301.284 13.3486C301.284 10.7401 300.213 8.361 298.489 6.6401C296.752 4.91919 294.374 3.85043 291.759 3.85043ZM278.077 0.136904L291.753 0.136904C295.396 0.136904 298.713 1.62231 301.109 4.0195C303.511 6.41668 305 9.71962 305 13.3547C305 16.9897 303.511 20.2986 301.109 22.6898C298.706 25.087 295.396 26.5724 291.753 26.5724H278.077C277.048 26.5724 276.213 25.7391 276.213 24.7126V1.99065C276.213 0.964149 277.048 0.136904 278.077 0.136904ZM37.9851 20.0571C39.7158 21.784 42.1001 22.8528 44.7082 22.8528H49.9851C52.5993 22.8528 54.9776 21.778 56.7083 20.0571C58.433 18.3362 59.5101 15.9571 59.5101 13.3486C59.5101 10.7401 58.439 8.361 56.7083 6.6401C54.9836 4.91919 52.5993 3.8444 49.9851 3.8444L44.7082 3.8444C42.088 3.8444 39.7097 4.91317 37.9851 6.63407C36.2604 8.35497 35.1893 10.734 35.1893 13.3426C35.1832 15.9632 36.2604 18.3362 37.9851 20.0571ZM44.7082 26.5724C41.0713 26.5724 37.7551 25.0809 35.3527 22.6837C32.9563 20.2866 31.4616 16.9836 31.4616 13.3486C31.4616 9.71358 32.9502 6.40462 35.3527 4.01347C37.7551 1.61628 41.0653 0.130859 44.7082 0.130859L49.9851 0.130859C53.6281 0.130859 56.9383 1.62232 59.3407 4.01347C61.7431 6.41066 63.2318 9.71961 63.2318 13.3486C63.2318 16.9836 61.7371 20.2866 59.3407 22.6837C56.9383 25.0809 53.6281 26.5663 49.9851 26.5663H44.7082V26.5724ZM74.6569 24.7126C74.6569 25.7391 73.8219 26.5724 72.7931 26.5724C71.7644 26.5724 70.9292 25.7391 70.9292 24.7126V1.99065C70.9292 0.964149 71.7644 0.130859 72.7931 0.130859C73.725 0.130859 74.3362 0.885648 74.9777 1.45928L96.3817 20.5643V1.99065C96.3817 0.964149 97.2168 0.130859 98.2456 0.130859C99.2743 0.130859 100.109 0.964149 100.109 1.99065V23.6257V24.7126C100.109 25.1353 99.9702 25.5278 99.7282 25.8357C99.3893 26.2825 98.8507 26.5724 98.2456 26.5724C97.7009 26.5724 97.235 26.3429 96.8779 26.0048L95.9702 25.1655L74.6569 6.13893V24.7126ZM107.849 3.85043C106.82 3.85043 105.985 3.01716 105.985 1.99065C105.985 0.964149 106.82 0.130859 107.849 0.130859L132.648 0.130859C133.677 0.130859 134.512 0.964149 134.512 1.99065C134.512 3.01716 133.677 3.85043 132.648 3.85043L122.113 3.85043V24.7126C122.113 25.7391 121.277 26.5724 120.249 26.5724C119.22 26.5724 118.385 25.7391 118.385 24.7126V3.85043L107.849 3.85043ZM142.276 26.5724C142.004 26.5724 141.744 26.512 141.508 26.4094L141.465 26.3912L141.423 26.3731L141.386 26.355L141.35 26.3369L141.314 26.3127L141.278 26.2886L141.241 26.2644L141.205 26.2403L141.169 26.2161L141.132 26.192L141.096 26.1618L141.06 26.1316L141.029 26.1014L140.999 26.0712L140.969 26.041L140.939 26.0108L140.908 25.9806L140.878 25.9504L140.848 25.9203L140.818 25.884L140.793 25.8478L140.769 25.8116L140.745 25.7753L140.721 25.7391L140.697 25.7029L140.672 25.6666L140.648 25.6304L140.63 25.5942L140.612 25.5519L140.594 25.5096C140.485 25.2681 140.418 24.9843 140.43 24.7126C140.43 17.1769 140.43 9.61092 140.43 2.07518C140.418 1.38078 140.757 0.752807 141.368 0.402588L141.405 0.37843L141.441 0.354272L141.483 0.336158L141.526 0.318044L141.568 0.29993L141.61 0.281816L141.653 0.263702L141.695 0.245588L141.737 0.233518L141.78 0.221448L141.822 0.20936L141.865 0.19729L141.907 0.185201L141.949 0.179176L141.992 0.173132L142.04 0.167087L142.088 0.161062L142.137 0.155018H142.185H142.234H142.282L163.71 0.155018C164.739 0.155018 165.574 0.988288 165.574 2.01479C165.574 3.04129 164.739 3.87458 163.71 3.87458L144.146 3.87458V10.9635L159.093 10.9635C160.122 10.9635 160.957 11.7968 160.957 12.8233C160.957 13.8498 160.122 14.6831 159.093 14.6831L144.146 14.6831V22.883H163.71C164.739 22.883 165.574 23.7163 165.574 24.7428C165.574 25.7693 164.769 26.6026 163.741 26.6026L142.276 26.5724ZM177.326 24.7126C177.326 25.7391 176.491 26.5724 175.462 26.5724C174.434 26.5724 173.598 25.7391 173.598 24.7126V1.99065C173.598 1.88196 173.611 1.79743 173.623 1.72497C173.671 1.37475 173.822 1.0366 174.077 0.752799C174.76 -0.00802119 175.934 -0.0744361 176.697 0.607887L199.051 20.5643V1.99065C199.051 0.964149 199.886 0.130859 200.915 0.130859C201.944 0.130859 202.779 0.964149 202.779 1.99065V24.7126C202.779 25.7391 201.944 26.5724 200.915 26.5724C200.376 26.5724 199.886 26.3429 199.547 25.9746L177.326 6.13893V24.7126ZM210.494 3.85043C209.465 3.85043 208.63 3.01716 208.63 1.99065C208.63 0.964149 209.465 0.130859 210.494 0.130859L235.293 0.130859C236.322 0.130859 237.157 0.964149 237.157 1.99065C237.157 3.01716 236.322 3.85043 235.293 3.85043L224.758 3.85043V24.7126C224.758 25.7391 223.922 26.5724 222.894 26.5724C221.865 26.5724 221.03 25.7391 221.03 24.7126V3.85043L210.494 3.85043ZM244.927 26.5724H244.867C244.594 26.5724 244.334 26.512 244.098 26.4094L244.056 26.3912L244.013 26.3731L243.977 26.355L243.941 26.3369L243.904 26.3127L243.868 26.2886L243.832 26.2644L243.795 26.2403L243.759 26.2161L243.723 26.192L243.687 26.1618L243.65 26.1316L243.62 26.1014L243.59 26.0712L243.559 26.041L243.529 26.0108L243.499 25.9806L243.469 25.9504L243.438 25.9203L243.408 25.884L243.384 25.8478L243.36 25.8116L243.336 25.7753L243.311 25.7391L243.287 25.7029L243.263 25.6666L243.245 25.6304L243.227 25.5942L243.208 25.5519L243.19 25.5096C243.081 25.2741 243.027 25.0145 243.027 24.7428V24.6824V12.8776V12.8172V12.7569V2.06915V2.00877C243.027 1.32041 243.402 0.716571 243.965 0.396544L244.001 0.372404L244.038 0.348246L244.08 0.330132L244.122 0.312018L244.165 0.293904L244.207 0.27579L244.249 0.257676L244.292 0.239562L244.334 0.227474L244.376 0.215404L244.419 0.203315L244.461 0.191246L244.503 0.179176L244.546 0.173132L244.588 0.167087L244.637 0.161062L244.685 0.155018L244.733 0.148973H244.782H244.83L244.879 0.148973L266.307 0.148973C267.336 0.148973 268.171 0.982263 268.171 2.00877C268.171 3.03527 267.336 3.86854 266.307 3.86854L246.743 3.86854V10.9575L261.69 10.9575C262.718 10.9575 263.553 11.7907 263.553 12.8172C263.553 13.8437 262.718 14.677 261.69 14.677L246.743 14.677V22.877L266.307 22.877C267.336 22.877 268.171 23.7102 268.171 24.7367C268.171 25.7632 267.336 26.5965 266.307 26.5965L244.927 26.5965V26.5724Z" fill="#181818"></path> </svg> 