<?xml version="1.0" encoding="UTF-8"?> <svg xmlns="http://www.w3.org/2000/svg" width="305" height="27" viewBox="0 0 305 27" fill="none"> <path d="M24.6234 22.722C25.6522 22.722 26.4873 23.5552 26.4873 24.5817C26.4873 25.6082 25.6522 26.4415 24.6234 26.4415H13.2467C9.60368 26.4415 6.28747 24.9561 3.89109 22.5589C1.48866 20.1617 0 16.8588 0 13.2238C0 9.58876 1.48866 6.27979 3.89109 3.88864C6.29352 1.49145 9.60368 0.00604415 13.2467 0.00604415L24.6234 0.00604415C25.6522 0.00604415 26.4873 0.839315 26.4873 1.86582C26.4873 2.89232 25.6522 3.72561 24.6234 3.72561L13.2467 3.72561C10.6264 3.72561 8.24815 4.79438 6.52348 6.51528C4.79881 8.23618 3.72771 10.6153 3.72771 13.2238C3.72771 15.8323 4.79881 18.2114 6.52953 19.9323C8.2542 21.6532 10.6385 22.728 13.2527 22.728H24.6234V22.722ZM291.759 3.71957L279.941 3.71957V22.722H291.759C294.374 22.722 296.758 21.6532 298.483 19.9262C300.207 18.2053 301.284 15.8263 301.284 13.2177C301.284 10.6092 300.213 8.23014 298.489 6.50924C296.752 4.78833 294.374 3.71957 291.759 3.71957ZM278.077 0.00604415L291.753 0.00604415C295.396 0.00604415 298.713 1.49145 301.109 3.88864C303.511 6.28582 305 9.58876 305 13.2238C305 16.8588 303.511 20.1678 301.109 22.5589C298.706 24.9561 295.396 26.4415 291.753 26.4415H278.077C277.048 26.4415 276.213 25.6082 276.213 24.5817V1.85979C276.213 0.833289 277.048 0.00604415 278.077 0.00604415ZM37.9851 19.9262C39.7158 21.6532 42.1001 22.722 44.7082 22.722H49.9851C52.5993 22.722 54.9776 21.6471 56.7083 19.9262C58.433 18.2053 59.5101 15.8263 59.5101 13.2177C59.5101 10.6092 58.439 8.23014 56.7083 6.50924C54.9836 4.78833 52.5993 3.71354 49.9851 3.71354L44.7082 3.71354C42.088 3.71354 39.7097 4.78231 37.9851 6.50321C36.2604 8.22411 35.1893 10.6032 35.1893 13.2117C35.1832 15.8323 36.2604 18.2053 37.9851 19.9262ZM44.7082 26.4415C41.0713 26.4415 37.7551 24.9501 35.3527 22.5529C32.9563 20.1557 31.4616 16.8528 31.4616 13.2177C31.4616 9.58272 32.9502 6.27376 35.3527 3.88261C37.7551 1.48542 41.0653 0 44.7082 0L49.9851 0C53.6281 0 56.9383 1.49146 59.3407 3.88261C61.7431 6.2798 63.2318 9.58876 63.2318 13.2177C63.2318 16.8528 61.7371 20.1557 59.3407 22.5529C56.9383 24.9501 53.6281 26.4355 49.9851 26.4355H44.7082V26.4415ZM74.6569 24.5817C74.6569 25.6082 73.8219 26.4415 72.7931 26.4415C71.7644 26.4415 70.9292 25.6082 70.9292 24.5817V1.85979C70.9292 0.833289 71.7644 0 72.7931 0C73.725 0 74.3362 0.754789 74.9777 1.32842L96.3817 20.4334V1.85979C96.3817 0.833289 97.2168 0 98.2456 0C99.2743 0 100.109 0.833289 100.109 1.85979V23.4948V24.5817C100.109 25.0044 99.9702 25.3969 99.7282 25.7049C99.3893 26.1517 98.8507 26.4415 98.2456 26.4415C97.7009 26.4415 97.235 26.2121 96.8779 25.8739L95.9702 25.0346L74.6569 6.00807V24.5817V24.5817ZM107.849 3.71957C106.82 3.71957 105.985 2.8863 105.985 1.85979C105.985 0.833289 106.82 0 107.849 0L132.648 0C133.677 0 134.512 0.833289 134.512 1.85979C134.512 2.8863 133.677 3.71957 132.648 3.71957L122.113 3.71957V24.5817C122.113 25.6082 121.277 26.4415 120.249 26.4415C119.22 26.4415 118.385 25.6082 118.385 24.5817V3.71957L107.849 3.71957ZM142.276 26.4415C142.004 26.4415 141.744 26.3811 141.508 26.2785L141.465 26.2604L141.423 26.2423L141.386 26.2242L141.35 26.206L141.314 26.1819L141.278 26.1577L141.241 26.1336L141.205 26.1094L141.169 26.0853L141.132 26.0611L141.096 26.0309L141.06 26.0007L141.029 25.9705L140.999 25.9404L140.969 25.9101L140.939 25.88L140.908 25.8498L140.878 25.8196L140.848 25.7894L140.818 25.7532L140.793 25.7169L140.769 25.6807L140.745 25.6445L140.721 25.6082L140.697 25.572L140.672 25.5358L140.648 25.4996L140.63 25.4633L140.612 25.4211L140.594 25.3788C140.485 25.1373 140.418 24.8535 140.43 24.5817C140.43 17.046 140.43 9.48006 140.43 1.94432C140.418 1.24992 140.757 0.621948 141.368 0.271729L141.405 0.247571L141.441 0.223412L141.483 0.205298L141.526 0.187184L141.568 0.16907L141.61 0.150956L141.653 0.132842L141.695 0.114728L141.737 0.102658L141.78 0.0905886L141.822 0.0785002L141.865 0.0664304L141.907 0.0543421L141.949 0.0483164L141.992 0.0422722L142.04 0.036228L142.088 0.0302023L142.137 0.0241582L142.185 0.0241582L142.234 0.0241582L142.282 0.0241582L163.71 0.0241582C164.739 0.0241582 165.574 0.857429 165.574 1.88393C165.574 2.91044 164.739 3.74372 163.71 3.74372L144.146 3.74372V10.8326L159.093 10.8326C160.122 10.8326 160.957 11.6659 160.957 12.6924C160.957 13.7189 160.122 14.5522 159.093 14.5522L144.146 14.5522V22.7522H163.71C164.739 22.7522 165.574 23.5854 165.574 24.6119C165.574 25.6384 164.769 26.4717 163.741 26.4717L142.276 26.4415ZM177.326 24.5817C177.326 25.6082 176.491 26.4415 175.462 26.4415C174.434 26.4415 173.598 25.6082 173.598 24.5817V1.85979C173.598 1.7511 173.611 1.66657 173.623 1.59411C173.671 1.24389 173.822 0.905737 174.077 0.621939C174.76 -0.138881 175.934 -0.205295 176.697 0.477027L199.051 20.4334V1.85979C199.051 0.833289 199.886 0 200.915 0C201.944 0 202.779 0.833289 202.779 1.85979V24.5817C202.779 25.6082 201.944 26.4415 200.915 26.4415C200.376 26.4415 199.886 26.2121 199.547 25.8437L177.326 6.00807V24.5817ZM210.494 3.71957C209.465 3.71957 208.63 2.8863 208.63 1.85979C208.63 0.833289 209.465 0 210.494 0L235.293 0C236.322 0 237.157 0.833289 237.157 1.85979C237.157 2.8863 236.322 3.71957 235.293 3.71957L224.758 3.71957V24.5817C224.758 25.6082 223.922 26.4415 222.894 26.4415C221.865 26.4415 221.03 25.6082 221.03 24.5817V3.71957L210.494 3.71957ZM244.927 26.4415H244.867C244.594 26.4415 244.334 26.3811 244.098 26.2785L244.056 26.2604L244.013 26.2423L243.977 26.2242L243.941 26.206L243.904 26.1819L243.868 26.1577L243.832 26.1336L243.795 26.1094L243.759 26.0853L243.723 26.0611L243.687 26.0309L243.65 26.0007L243.62 25.9705L243.59 25.9404L243.559 25.9101L243.529 25.88L243.499 25.8498L243.469 25.8196L243.438 25.7894L243.408 25.7532L243.384 25.7169L243.36 25.6807L243.336 25.6445L243.311 25.6082L243.287 25.572L243.263 25.5358L243.245 25.4996L243.227 25.4633L243.208 25.4211L243.19 25.3788C243.081 25.1433 243.027 24.8837 243.027 24.6119V24.5515V12.7468V12.6864V12.626V1.93829V1.87791C243.027 1.18955 243.402 0.585712 243.965 0.265685L244.001 0.241545L244.038 0.217387L244.08 0.199273L244.122 0.181159L244.165 0.163045L244.207 0.144931L244.249 0.126817L244.292 0.108703L244.334 0.0966143L244.376 0.0845444L244.419 0.0724561L244.461 0.0603862L244.503 0.0483164L244.546 0.0422722L244.588 0.036228L244.637 0.0302023L244.685 0.0241582L244.733 0.018114L244.782 0.018114L244.83 0.018114L244.879 0.018114L266.307 0.018114C267.336 0.018114 268.171 0.851403 268.171 1.87791C268.171 2.90441 267.336 3.73768 266.307 3.73768L246.743 3.73768V10.8266L261.69 10.8266C262.718 10.8266 263.554 11.6599 263.554 12.6864C263.554 13.7129 262.718 14.5462 261.69 14.5462L246.743 14.5462V22.7461L266.307 22.7461C267.336 22.7461 268.171 23.5794 268.171 24.6059C268.171 25.6324 267.336 26.4657 266.307 26.4657L244.927 26.4657V26.4415Z" fill="white"></path> </svg> 