<?xml version="1.0" encoding="UTF-8"?> <svg xmlns="http://www.w3.org/2000/svg" width="314" height="183" viewBox="0 0 314 183" fill="none"> <path d="M1.35352 5L1.35352 54.8139C1.35352 57.0231 3.14438 58.8139 5.35352 58.8139L50.2823 58.8139C52.4914 58.8139 54.2823 60.6048 54.2823 62.8139L54.2823 178C54.2823 180.209 56.0731 182 58.2823 182L184.426 182C186.635 182 188.426 180.209 188.426 178V151.524C188.426 149.315 190.217 147.524 192.426 147.524L308.354 147.524C310.563 147.524 312.354 145.733 312.354 143.524V32.8462C312.354 30.6371 310.563 28.8462 308.354 28.8462L282.984 28.8462C280.775 28.8462 278.984 27.0553 278.984 24.8462L278.984 5.00009C278.984 2.79095 277.194 1.00008 274.984 1.00008L212.576 1.00008C210.367 1.00008 208.576 2.79095 208.576 5.00008V65.3425C208.576 67.5516 206.785 69.3425 204.576 69.3425L135.429 69.3425C133.22 69.3425 131.429 67.5516 131.429 65.3425V5C131.429 2.79086 129.638 1 127.429 1L5.35352 1C3.14438 1 1.35352 2.79086 1.35352 5Z" stroke="#A2C1C4" stroke-width="2"></path> </svg> 