<?xml version="1.0" encoding="UTF-8"?> <svg xmlns="http://www.w3.org/2000/svg" width="322" height="188" viewBox="0 0 322 188" fill="none"> <path d="M95.8843 1H5C2.79086 1 1 2.79086 1 5V63.8208C1 66.03 2.79087 67.8208 5 67.8208H22.974C25.1831 67.8208 26.974 69.6117 26.974 71.8208V139.136C26.974 141.345 25.1831 143.136 22.974 143.136H5C2.79086 143.136 1 144.927 1 147.136V183C1 185.209 2.79085 187 4.99999 187H273.052C275.261 187 277.052 185.209 277.052 183V155.571C277.052 153.362 278.842 151.571 281.052 151.571H317C319.209 151.571 321 149.781 321 147.571V16.5825C321 14.3733 319.209 12.5825 317 12.5825H256.331C254.121 12.5825 252.331 14.3733 252.331 16.5825V25.6154C252.331 27.8246 250.54 29.6154 248.331 29.6154H103.884C101.675 29.6154 99.8843 27.8246 99.8843 25.6154V5C99.8843 2.79086 98.0934 1 95.8843 1Z" stroke="#FF6945" stroke-width="2"></path> </svg> 