<?xml version="1.0" encoding="UTF-8"?> <svg xmlns="http://www.w3.org/2000/svg" width="315" height="183" viewBox="0 0 315 183" fill="none"> <g clip-path="url(#clip0_1272_3)"> <path d="M1.35352 5.00001V157.491C1.35352 159.7 3.14437 161.491 5.35351 161.491H50.4525C52.6616 161.491 54.4525 163.282 54.4525 165.491V178C54.4525 180.209 56.2433 182 58.4525 182H185.028C187.237 182 189.028 180.209 189.028 178V151.524C189.028 149.315 190.818 147.524 193.028 147.524H309.354C311.563 147.524 313.354 145.733 313.354 143.524V32.8462C313.354 30.6371 311.563 28.8462 309.354 28.8462H250.401C248.192 28.8462 246.401 27.0553 246.401 24.8462V5.00009C246.401 2.79095 244.61 1.00008 242.401 1.00008H213.242C211.033 1.00008 209.242 2.79093 209.242 5.00007V24.8462C209.242 27.0554 207.451 28.8462 205.242 28.8462H101.766C99.5565 28.8462 97.7657 27.0554 97.7657 24.8462V5C97.7657 2.79086 95.9748 1 93.7657 1H5.35352C3.14438 1 1.35352 2.79087 1.35352 5.00001Z" stroke="#F5EDD7" stroke-width="2"></path> </g> <defs> <clipPath id="clip0_1272_3"> <rect width="315" height="183" fill="white"></rect> </clipPath> </defs> </svg> 