<?xml version="1.0" encoding="UTF-8"?> <svg xmlns="http://www.w3.org/2000/svg" width="323" height="188" viewBox="0 0 323 188" fill="none"> <path d="M96.2378 1H5.35352C3.14438 1 1.35352 2.79086 1.35352 5V63.8208C1.35352 66.03 3.14438 67.8208 5.35352 67.8208H23.3275C25.5366 67.8208 27.3275 69.6117 27.3275 71.8208V139.136C27.3275 141.345 25.5366 143.136 23.3275 143.136H5.35352C3.14438 143.136 1.35352 144.927 1.35352 147.136V183C1.35352 185.209 3.14437 187 5.3535 187H273.405C275.614 187 277.405 185.209 277.405 183V155.571C277.405 153.362 279.196 151.571 281.405 151.571H317.354C319.563 151.571 321.354 149.781 321.354 147.571V16.5825C321.354 14.3733 319.563 12.5825 317.354 12.5825H256.684C254.475 12.5825 252.684 14.3733 252.684 16.5825V25.6154C252.684 27.8246 250.893 29.6154 248.684 29.6154H104.238C102.029 29.6154 100.238 27.8246 100.238 25.6154V5C100.238 2.79086 98.4469 1 96.2378 1Z" stroke="#FFE040" stroke-width="2"></path> </svg> 