<?xml version="1.0" encoding="UTF-8"?> <svg xmlns="http://www.w3.org/2000/svg" width="1922" height="467" viewBox="0 0 1922 467" fill="none"> <g clip-path="url(#clip0_621_29)"> <path d="M1859.09 438.954H1872.21L1900.72 395.878V438.954H1912.64V379.269H1899.52L1871 422.348V379.269H1859.09V438.954ZM1794.72 438.954H1807.84L1836.36 395.878V438.954H1848.27V379.269H1835.16L1806.64 422.348V379.269H1794.72V438.954ZM1748.05 438.954H1760.45V390.459H1786.92V379.265H1748.05V438.95V438.954ZM1708.23 429.205C1697.77 429.205 1688.86 421.386 1688.86 409.113C1688.86 396.839 1697.77 389.017 1708.23 389.017C1718.7 389.017 1727.49 396.839 1727.49 409.113C1727.49 421.386 1718.58 429.205 1708.23 429.205ZM1740.12 409.113C1740.12 388.536 1724.48 377.586 1708.23 377.586C1691.99 377.586 1676.23 388.536 1676.23 409.113C1676.23 429.689 1691.87 440.636 1708.23 440.636C1724.6 440.636 1740.12 429.689 1740.12 409.113ZM1616.34 439.797C1628.25 439.797 1632.6 432.34 1633.45 415.25L1634.77 390.462H1655.91V438.957H1668.3V379.272H1623.92L1621.99 414.773C1621.27 426.322 1619.47 428.732 1615.62 428.732C1612.97 428.732 1611.4 428.011 1611.4 428.011V438.961C1611.4 438.961 1613.81 439.804 1616.34 439.804V439.797ZM1578.43 429.205C1567.96 429.205 1559.05 421.386 1559.05 409.113C1559.05 396.839 1567.96 389.017 1578.43 389.017C1588.9 389.017 1597.68 396.839 1597.68 409.113C1597.68 421.386 1588.78 429.205 1578.43 429.205ZM1610.32 409.113C1610.32 388.536 1594.68 377.586 1578.43 377.586C1562.18 377.586 1546.42 388.536 1546.42 409.113C1546.42 429.689 1562.06 440.636 1578.43 440.636C1594.79 440.636 1610.32 429.689 1610.32 409.113ZM1485.91 438.957H1498.31V413.327H1526.11V438.957H1538.5V379.272H1526.11V402.499H1498.31V379.272H1485.91V438.957ZM1453.8 397.442L1442.36 379.272H1428.29L1447.06 407.312L1425.28 438.957H1439.72L1453.8 416.935L1467.76 438.957H1482.08L1461.14 406.947L1479.43 379.272H1465.23L1453.8 397.442H1453.8ZM1398.1 387.335C1407.24 387.335 1414.46 392.625 1415.43 402.015H1379.93C1381.97 393.712 1388.96 387.335 1398.1 387.335ZM1379.68 411.763H1427.34V407.431C1427.34 389.982 1415.79 377.586 1398.46 377.586C1381.13 377.586 1367.65 390.462 1367.65 409.113C1367.65 427.763 1381.37 440.636 1397.85 440.636C1411.09 440.636 1419.27 435.105 1424.81 425.719L1415.06 420.547C1411.21 425.841 1407.36 429.933 1398.09 429.933C1387.63 429.933 1380.52 422.351 1379.68 411.763H1379.68ZM1336.5 438.957H1348.9V390.462H1367.55V379.269H1317.73V390.462H1336.5V438.957ZM1248.06 387.335C1257.2 387.335 1264.42 392.625 1265.39 402.015H1229.89C1231.94 393.712 1238.91 387.335 1248.06 387.335ZM1229.65 411.763H1277.3V407.431C1277.3 389.982 1265.75 377.586 1248.42 377.586C1231.09 377.586 1217.61 390.462 1217.61 409.113C1217.61 427.763 1231.33 440.636 1247.82 440.636C1261.05 440.636 1269.23 435.105 1274.77 425.719L1265.02 420.547C1261.18 425.841 1257.32 429.933 1248.06 429.933C1237.59 429.933 1230.49 422.351 1229.65 411.763ZM1152.65 429.209V409.357H1166C1173.35 409.357 1176.95 413.449 1176.95 419.346C1176.95 425.242 1173.35 429.209 1166 429.209H1152.65ZM1197.17 379.272V438.957H1209.68V379.272H1197.17ZM1140.26 438.957H1166.36C1180.09 438.957 1188.99 431.978 1188.99 419.346C1188.99 406.713 1180.08 399.73 1166.36 399.73H1152.65V379.272H1140.26V438.957ZM1076.85 438.957H1089.25V413.327H1117.05V438.957H1129.44V379.272H1117.05V402.499H1089.25V379.272H1076.85V438.957ZM1013.45 438.957H1025.85V413.327H1053.65V438.957H1066.04V379.272H1053.65V402.499H1025.85V379.272H1013.45V438.957ZM973.638 429.209C963.169 429.209 954.263 421.39 954.263 409.116C954.263 396.843 963.169 389.021 973.638 389.021C984.108 389.021 992.891 396.843 992.891 409.116C992.891 421.39 983.986 429.209 973.638 429.209ZM1005.53 409.116C1005.53 388.54 989.886 377.59 973.638 377.59C957.391 377.59 941.631 388.54 941.631 409.116C941.631 429.693 957.273 440.639 973.638 440.639C990.004 440.639 1005.53 429.693 1005.53 409.116ZM880.16 438.961H893.276L921.794 395.885V438.961H933.705V379.276H920.589L892.071 422.355V379.276H880.16V438.961ZM863.45 452.92H874.762V427.771H866.097V379.276H853.583V427.771H826.87V379.276H814.474V438.961H863.45V452.92ZM775.262 430.296C769.365 430.296 765.029 427.043 765.029 421.512C765.029 415.981 769.121 412.728 776.463 411.645L792.707 409.116V410.802C792.707 422.355 785.609 430.296 775.262 430.296ZM794.637 438.957H807.028C805.705 434.625 805.224 430.776 805.224 424.159V398.288C805.224 384.81 796.078 377.586 780.075 377.586C765.395 377.586 756.131 385.531 756.131 394.795C756.131 395.882 756.249 397.202 756.493 398.403L767.923 396.721C767.801 395.997 767.801 395.52 767.801 394.913C767.801 390.581 772.134 386.732 780.078 386.732C788.023 386.732 792.711 390.34 792.711 397.198V400.089L773.701 402.858C762.031 404.544 752.881 410.196 752.881 422.111C752.881 433.179 760.947 440.636 772.859 440.636C781.642 440.636 789.465 436.066 793.195 428.366C793.195 432.935 794.038 436.429 794.64 438.954L794.637 438.957ZM675.883 438.957H687.794V396.599L705.125 438.957H715.594L732.803 396.721V438.957H744.836V379.272H727.868L710.301 424.636L692.73 379.272H675.887V438.957H675.883ZM636.667 389.017C647.499 389.017 655.199 397.564 655.199 409.113C655.199 420.662 647.502 429.205 636.667 429.205C625.832 429.205 618.135 420.544 618.135 409.113C618.135 397.682 625.835 389.017 636.667 389.017ZM606.586 379.272V463.504H619.096V430.532C623.31 436.669 630.412 440.636 639.314 440.636C655.436 440.636 667.949 427.763 667.949 409.113C667.949 390.462 655.558 377.586 640.275 377.586C630.77 377.586 622.826 382.644 619.096 389.017V379.272H606.586ZM566.412 429.209C555.946 429.209 547.037 421.39 547.037 409.116C547.037 396.843 555.943 389.021 566.412 389.021C576.881 389.021 585.665 396.843 585.665 409.116C585.665 421.39 576.759 429.209 566.412 429.209ZM598.301 409.116C598.301 388.54 582.656 377.59 566.412 377.59C550.168 377.59 534.401 388.54 534.401 409.116C534.401 429.693 550.046 440.639 566.412 440.639C582.778 440.639 598.301 429.693 598.301 409.116ZM498.56 428.85V389.383C510.113 391.069 517.332 397.804 517.332 409.116C517.332 420.429 510.113 427.164 498.56 428.85ZM467.754 409.116C467.754 397.804 474.978 391.069 486.527 389.383V428.85C474.978 427.164 467.754 420.429 467.754 409.116ZM529.968 409.116C529.968 391.668 517.092 379.997 498.56 377.952V354.729H486.527V377.952C467.995 379.997 455.122 391.668 455.122 409.116C455.122 426.565 467.995 438.236 486.527 440.288V463.508H498.56V440.288C517.092 438.236 529.968 426.569 529.968 409.116ZM394.609 438.961H407.004V413.331H434.8V438.961H447.196V379.276H434.8V402.503H407.004V379.276H394.609V438.961ZM315.444 438.961H328.805L365.743 379.157C365.743 379.157 368.631 374.344 369.351 372.536V438.961H381.984V354.729H368.627L331.688 414.292C331.688 414.292 328.801 419.105 328.08 420.909V354.729H315.444V438.961Z" fill="#101828"></path> <path d="M1684.71 189.404L1649.64 278.492L1614.57 189.404H1572.33V316.378H1603.05V235.994L1637.1 316.378H1662.19L1696.23 235.994V316.378H1726.95V189.404H1684.72H1684.71ZM1486.64 289.962C1467.65 289.962 1449.96 276.369 1449.96 253.031C1449.96 229.692 1467.65 216.099 1486.64 216.099C1505.62 216.099 1523.31 229.692 1523.31 253.031C1523.31 276.369 1505.61 289.962 1486.64 289.962ZM1486.64 185.838C1451.76 185.838 1417.13 208.409 1417.13 253.031C1417.13 297.652 1451.76 320.226 1486.64 320.226C1521.52 320.226 1556.13 297.655 1556.13 253.031C1556.13 208.406 1521.51 185.838 1486.64 185.838ZM760.661 217.634H798.615V316.632H830.927V217.634H868.884V189.425H760.657V217.634H760.661ZM1187.65 236.102C1192.27 221.737 1205.09 210.457 1222.01 210.457C1239.97 210.457 1252.02 220.202 1255.1 236.102H1187.65ZM1223.04 185.835C1186.11 185.835 1156.11 212.763 1156.11 253.027C1156.11 293.29 1186.11 320.219 1221.5 320.219C1249.46 320.219 1267.15 309.703 1279.98 287.907L1254.33 275.085C1246.38 285.084 1239.2 292.523 1222.01 292.523C1203.04 292.523 1189.19 280.214 1187.14 260.72H1285.11V249.433C1285.11 212.25 1259.46 185.835 1223.04 185.835ZM909.151 236.102C913.764 221.737 926.59 210.457 943.518 210.457C961.47 210.457 973.524 220.202 976.602 236.102H909.151ZM944.541 185.835C907.613 185.835 877.607 212.763 877.607 253.027C877.607 293.29 907.613 320.219 943.006 320.219C970.96 320.219 988.656 309.703 1001.47 287.907L975.83 275.085C967.879 285.084 960.702 292.523 943.518 292.523C924.542 292.523 910.69 280.214 908.638 260.72H1006.61V249.433C1006.61 212.25 980.959 185.835 944.541 185.835ZM1036.2 261.491C1034.66 280.981 1030.81 285.342 1024.14 285.342C1019.58 285.342 1017.44 284.833 1014.33 284.023L1014.49 316.937C1014.49 316.937 1018.5 318.171 1025.94 318.171C1053.38 318.171 1063.64 300.475 1066.2 262.772L1069.28 218.405H1105.7V316.374H1138.01V189.422H1041.58L1036.2 261.495L1036.2 261.491ZM692.131 289.955C672.638 289.955 658.277 275.849 658.277 253.027C658.277 230.205 673.154 216.095 692.131 216.095C703.673 216.095 713.673 221.482 721.624 233.537L749.324 217.634C740.088 197.879 720.086 185.835 692.39 185.835C656.225 185.835 625.452 212.505 625.452 253.027C625.452 293.549 654.69 320.223 692.39 320.223C719.573 320.223 737.782 307.913 750.608 286.11L723.934 271.491C716.237 282.258 708.034 289.955 692.131 289.955ZM540.13 289.955C521.149 289.955 503.456 276.365 503.456 253.027C503.456 229.689 521.153 216.095 540.13 216.095C559.107 216.095 576.803 229.685 576.803 253.027C576.803 276.369 559.107 289.955 540.13 289.955ZM540.13 185.835C505.25 185.835 470.628 208.406 470.628 253.027C470.628 297.648 505.253 320.223 540.13 320.223C575.006 320.223 609.632 297.652 609.632 253.027C609.632 208.402 575.006 185.835 540.13 185.835ZM395.499 223.789H348.819V167.371H395.499C419.092 167.371 429.866 178.654 429.866 195.576C429.866 212.498 419.092 223.792 395.499 223.792V223.789ZM396.521 137.107H314.964V316.629H348.819V254.049H396.521C437.043 254.049 463.716 233.279 463.716 195.573C463.716 157.866 437.043 137.107 396.521 137.107ZM1420.94 189.422H1382.72L1337.07 235.589V189.422H1304.76V316.629H1337.07V264.056L1383.49 316.629H1422.48L1362.46 248.411L1420.94 189.422Z" fill="#101828"></path> <path d="M22.1666 437.33L22.1738 437.337C22.4392 437.445 22.6974 437.56 22.9664 437.656C23.1816 437.735 23.4757 437.814 23.8272 437.893C26.9046 438.854 30.172 439.392 33.5613 439.417H205.2L92.6296 326.546C92.6296 326.546 92.6081 326.568 92.5687 326.603C71.7518 347.298 57.9971 360.967 47.8541 371.074C38.8552 380.048 32.7041 386.217 27.0014 391.999C19.8245 399.161 15.0364 403.931 15.022 403.949L15.0005 403.971C11.5 407.683 9.35156 413.041 9.35156 418.543C9.35156 427.187 14.6454 434.238 22.163 437.326" fill="#FF4F12"></path> <path d="M9.35214 418.546C9.35214 413.044 11.5005 407.686 15.0011 403.977L15.0226 403.952C15.0226 403.952 19.8251 399.16 27.0056 392.001C32.7047 386.22 38.8558 380.051 47.8582 371.077C57.9941 360.97 71.7524 347.301 92.5692 326.61C92.6051 326.574 92.6266 326.549 92.6302 326.549C98.7526 320.462 105.485 313.77 112.916 306.381C113.049 306.252 113.185 306.112 113.321 305.979C147.022 272.473 194.996 224.742 265.341 154.652L110.775 0L23.2683 87.6143C-2.88545 113.768 0.650966 130.883 0.650966 166.018V406.391C0.650966 420.605 9.59603 432.656 22.1672 437.329C14.6496 434.241 9.35573 427.19 9.35573 418.546" fill="#7700FF"></path> </g> <defs> <clipPath id="clip0_621_29"> <rect width="1920.87" height="467" fill="white" transform="translate(0.490723)"></rect> </clipPath> </defs> </svg> 