<?xml version="1.0" encoding="UTF-8"?> <svg xmlns="http://www.w3.org/2000/svg" width="5120" height="2898" viewBox="0 0 5120 2898" fill="none"> <path d="M0 0H5120V2813.91C5120 2822.74 5112.84 2829.91 5104 2829.91H3856C3847.16 2829.91 3840 2822.75 3840 2813.91V2808.98C3840 2800.14 3832.84 2792.98 3824 2792.98H2576C2567.16 2792.98 2560 2800.14 2560 2808.98V2881.01C2560 2889.85 2552.84 2897.01 2544 2897.01H1296C1287.16 2897.01 1280 2889.85 1280 2881.01V2808.98C1280 2800.14 1272.84 2792.98 1264 2792.98H16C7.16343 2792.98 0 2785.82 0 2776.98V0Z" fill="#B5E916"></path> </svg> 