<svg width="1280" height="26" viewBox="0 0 1280 26" fill="none" xmlns="http://www.w3.org/2000/svg">
<g clip-path="url(#clip0_5307_13)">
<path d="M0 -823H1280V4.73216C1280 6.9413 1278.21 8.73218 1276 8.73218H964C961.791 8.73218 960 6.94132 960 4.73218V3.5C960 1.29086 958.209 -0.5 956 -0.5H644C641.791 -0.5 640 1.29086 640 3.5V21.5078C640 23.717 638.209 25.5078 636 25.5078H324C321.791 25.5078 320 23.717 320 21.5078V3.5C320 1.29086 318.209 -0.5 316 -0.5H4C1.79086 -0.5 0 -2.29086 0 -4.5V-823Z" fill="#E0FB52"/>
</g>
<defs>
<clipPath id="clip0_5307_13">
<rect width="1280" height="26" fill="white"/>
</clipPath>
</defs>
</svg>
