<svg xmlns="http://www.w3.org/2000/svg" width="497" height="517" viewBox="0 0 497 517" fill="none"> <path d="M378.239 94.1057H259.382C257.172 94.1057 255.382 92.3148 255.382 90.1057V68.9841C255.382 66.7749 253.591 64.9841 251.382 64.9841H5C2.79086 64.9841 1 66.7749 1 68.9841L1.00014 482C1.00014 484.209 2.791 486 5.00014 486H224.33C226.539 486 228.33 487.791 228.33 490V512C228.33 514.209 230.121 516 232.33 516H492C494.209 516 496 514.209 496 512L496 5C496 2.79086 494.209 1 492 1H386.239C384.029 1 382.239 2.79086 382.239 5V90.1057C382.239 92.3148 380.448 94.1057 378.239 94.1057Z" stroke="white" stroke-width="2"></path> </svg> 