<svg width="5120" height="104" viewBox="0 0 5120 104" fill="none" xmlns="http://www.w3.org/2000/svg">
<g clip-path="url(#clip0_201_2)">
<path d="M0 -2793H5120V20.9099C5120 29.7399 5112.84 36.9099 5104 36.9099H3856C3847.16 36.9099 3840 29.7499 3840 20.9099V15.98C3840 7.13998 3832.84 -0.0200195 3824 -0.0200195H2576C2567.16 -0.0200195 2560 7.13998 2560 15.98V88.01C2560 96.85 2552.84 104.01 2544 104.01H1296C1287.16 104.01 1280 96.85 1280 88.01V15.98C1280 7.13998 1272.84 -0.0200195 1264 -0.0200195H16C7.16343 -0.0200195 0 -7.18002 0 -16.02V-2793Z" fill="#B5E916"/>
</g>
<defs>
<clipPath id="clip0_201_2">
<rect width="5120" height="104" fill="white"/>
</clipPath>
</defs>
</svg>
