<svg width="173" height="15" viewBox="0 0 173 15" fill="none" xmlns="http://www.w3.org/2000/svg">
<path d="M69.0095 2.97989H77.1887V0.349446H65.7625V14.0362H69.0095V9.00125H75.7912V6.37081H69.0095V2.97989Z" fill="#181818"/>
<path d="M56.186 0.349355H52.939V14.0361H63.5842V11.4056H56.186V0.349355Z" fill="#181818"/>
<path d="M43.3625 0.349355H40.1155V14.0361H50.7607V11.4056H43.3625V0.349355Z" fill="#181818"/>
<path d="M30.9494 0.349355H27.3325L22.0099 5.75423H20.407V0.349355H17.1599V14.0361H20.407V8.34362H22.0099L27.2708 14.0361H31.4838L24.6934 6.70655L30.9494 0.349355Z" fill="#181818"/>
<path d="M33.3745 14.0362H36.6216V0.349449H33.3745V14.0362Z" fill="#181818"/>
<path d="M82.2871 8.48747L84.8133 1.87016H84.9161L87.4311 8.48747H82.2871ZM82.1829 0.349355L76.9629 14.0361H80.1689L81.3064 11.0563H88.4074L89.54 14.0361H93.0951L87.8548 0.349355H82.1829Z" fill="#181818"/>
<path d="M137.22 0.34941H128.936V3.49368H137.22V0.34941Z" fill="#181818"/>
<path d="M151.317 6.98726H146.899V2.97986H151.317C152.838 2.97986 153.784 3.76086 153.784 4.99382C153.784 6.22692 152.838 6.98726 151.317 6.98726ZM157.154 4.99382C157.154 2.1374 154.934 0.349416 151.317 0.349416H143.632V14.0361H146.899V9.6177H150.104L153.784 14.0361H157.75L153.559 9.00292C155.829 8.45693 157.154 7.0261 157.154 4.99382Z" fill="#181818"/>
<path d="M137.219 10.8919H140.651V3.49376H137.219V10.8919Z" fill="#181818"/>
<path d="M169.34 0.349416L165.456 6.43237L161.572 0.349416H157.791L163.668 9.35066V14.0361H166.915V9.35066L172.813 0.349416H169.34Z" fill="#181818"/>
<path d="M110.172 2.97995H115.31V14.0362H118.557V2.97995H123.715V0.349507H110.172V2.97995Z" fill="#181818"/>
<path d="M101.623 11.5495C98.8487 11.5495 97.2251 9.94657 97.2251 7.1928C97.2251 4.43903 98.8487 2.8361 101.623 2.8361C103.781 2.8361 105.055 3.67856 105.507 5.34322H109.042C108.692 2.15789 105.671 6.96182e-05 101.623 6.96182e-05C96.7936 6.96182e-05 93.6494 2.8361 93.6494 7.1928C93.6494 11.57 96.773 14.3855 101.623 14.3855C105.836 14.3855 108.775 12.1455 109.083 8.71347H105.548C105.343 10.5015 103.904 11.5495 101.623 11.5495Z" fill="#181818"/>
<path d="M128.935 14.0362H137.22V10.892H128.935V14.0362Z" fill="#181818"/>
<path d="M125.503 10.8919H128.935V3.49376H125.503V10.8919Z" fill="#181818"/>
<path d="M9.06284 5.73372L5.67193 5.36375C4.48002 5.24056 3.82248 4.93219 3.82248 4.06906C3.82248 3.08274 4.84999 2.54839 7.08994 2.54839C9.33002 2.54839 10.5014 3.16487 10.6452 4.35677H13.8716C13.8716 1.6442 11.3234 6.96182e-05 7.02834 6.96182e-05C3.14427 6.96182e-05 0.411032 1.6442 0.411032 4.17185C0.411032 6.53512 2.11676 7.91207 5.50754 8.28204L8.7546 8.63135C10.2342 8.79573 11.0563 9.18623 11.0563 10.0904C11.0563 11.3029 9.90543 11.7756 7.31605 11.7756C4.7472 11.7756 3.30866 10.9947 3.30866 9.59726H0C0 12.8031 2.38393 14.3855 7.23379 14.3855C11.9605 14.3855 14.5498 12.8031 14.5498 9.98763C14.5498 7.56277 12.6797 6.12422 9.06284 5.73372Z" fill="#181818"/>
</svg>
