<svg width="162" height="114" viewBox="0 0 162 114" fill="none" xmlns="http://www.w3.org/2000/svg">
<path fill-rule="evenodd" clip-rule="evenodd" d="M65.2444 11.2935L0.96875 19.1855L12.5209 113.27L76.7965 105.378C76.7964 105.377 76.7962 105.376 76.7961 105.375C76.1013 99.7157 80.1256 94.5647 85.7848 93.8698C91.4439 93.175 96.5949 97.1994 97.2898 102.859C97.2899 102.86 97.29 102.861 97.2901 102.862L160.634 95.084L149.082 0.999536L85.738 8.77719C86.431 14.4351 82.4071 19.5843 76.749 20.279C71.0908 20.9737 65.9408 16.951 65.2444 11.2935Z" fill="#E0FB52"/>
<path d="M17.221 24.3238L18.0945 25.144C17.8337 25.4679 17.5158 25.7109 17.1407 25.8729C16.7656 26.0349 16.3343 26.1587 15.8467 26.2443C15.3592 26.3299 14.8167 26.4223 14.2192 26.5214C13.5456 26.6299 13.0054 26.8636 12.5987 27.2227C12.192 27.5817 11.9034 28.0637 11.733 28.6685C11.5625 29.2733 11.4949 29.9986 11.53 30.8444L11.6569 30.8288C11.912 30.1793 12.3138 29.6748 12.8621 29.3156C13.4105 28.9563 14.0188 28.7356 14.6871 28.6536C15.4484 28.5601 16.1554 28.6536 16.8081 28.9341C17.4608 29.2146 18.0077 29.682 18.4486 30.3362C18.8896 30.9905 19.1729 31.8294 19.2986 32.853C19.4238 33.8723 19.3499 34.7744 19.0771 35.5592C18.8084 36.3436 18.3731 36.9766 17.7711 37.4584C17.1728 37.9354 16.438 38.2275 15.5667 38.3344C14.6954 38.4414 13.9067 38.33 13.2008 38.0002C12.4943 37.6662 11.9093 37.1155 11.4459 36.3481C10.9819 35.5765 10.6761 34.59 10.5287 33.3888L10.4009 32.3483C10.1345 30.1786 10.3004 28.4881 10.8988 27.2768C11.5013 26.0651 12.5426 25.3491 14.0225 25.1287C14.5449 25.0474 15.0117 24.9858 15.423 24.9439C15.8343 24.902 16.1894 24.8391 16.4882 24.7551C16.787 24.6712 17.0313 24.5275 17.221 24.3238ZM15.4015 36.9894C15.9894 36.9172 16.4767 36.7071 16.8633 36.3591C17.2541 36.0106 17.5308 35.5537 17.6932 34.9885C17.8551 34.4191 17.8912 33.7685 17.8013 33.0368C17.7141 32.3262 17.5235 31.7357 17.2296 31.2652C16.9399 30.7941 16.5654 30.4537 16.106 30.2439C15.6466 30.0341 15.1187 29.9658 14.5224 30.0391C14.0867 30.0926 13.7046 30.2146 13.3759 30.4052C13.0473 30.5959 12.7779 30.85 12.5679 31.1678C12.3579 31.4855 12.2107 31.8599 12.1262 32.2911C12.046 32.7217 12.0344 33.2039 12.0914 33.7379C12.2254 34.8291 12.5885 35.6711 13.1808 36.2639C13.773 36.8566 14.5133 37.0985 15.4015 36.9894ZM26.1555 37.0343C25.2757 37.1423 24.4781 37.0277 23.7626 36.6905C23.0514 36.3528 22.4635 35.8304 21.9988 35.1232C21.5384 34.4155 21.2464 33.5584 21.1228 32.5517C20.9982 31.5366 21.0733 30.6279 21.3484 29.8256C21.6276 29.0228 22.0714 28.3716 22.6798 27.8718C23.2925 27.3715 24.0387 27.0674 24.9184 26.9594C25.7982 26.8514 26.5937 26.9662 27.3049 27.3039C28.0204 27.6411 28.6086 28.1657 29.0695 28.8776C29.5347 29.589 29.8296 30.4522 29.9542 31.4673C30.0778 32.474 29.9997 33.3766 29.72 34.1752C29.4444 34.9732 29.0003 35.6224 28.3877 36.1226C27.7793 36.6224 27.0352 36.9263 26.1555 37.0343ZM25.9903 35.6893C26.6586 35.6072 27.1874 35.3684 27.5768 34.9728C27.9661 34.5773 28.2301 34.0876 28.3688 33.5039C28.5075 32.9201 28.5369 32.3025 28.4569 31.6512C28.3769 30.9998 28.1988 30.4056 27.9225 29.8685C27.6462 29.3314 27.271 28.916 26.797 28.6221C26.323 28.3282 25.7518 28.2223 25.0836 28.3044C24.4153 28.3865 23.8867 28.6274 23.4979 29.0272C23.1091 29.427 22.8456 29.9209 22.7074 30.5088C22.5692 31.0968 22.5401 31.7165 22.6201 32.3679C22.7 33.0192 22.8779 33.6113 23.1537 34.1442C23.4295 34.6771 23.8042 35.0883 24.2777 35.3779C24.7512 35.6675 25.322 35.7713 25.9903 35.6893ZM38.6715 29.65L38.8428 31.0457L33.4628 31.7063L33.2914 30.3105L38.6715 29.65ZM33.1325 26.0796L34.3291 35.8246L32.8318 36.0085L31.6353 26.2635L33.1325 26.0796ZM39.2993 25.3224L40.4958 35.0674L38.9986 35.2513L37.802 25.5063L39.2993 25.3224ZM44.2944 38.3105C44.0406 38.3417 43.8117 38.3483 43.6077 38.3304C43.4043 38.3167 43.2621 38.2956 43.1813 38.2668L43.4 36.9005C43.7751 36.9489 44.1007 36.9432 44.3768 36.8836C44.6528 36.8239 44.8849 36.6688 45.0731 36.4181C45.2661 36.1712 45.4231 35.7891 45.5442 35.2719L45.7299 34.4763L40.9235 25.123L42.5476 24.9236L46.1912 32.3588L46.2927 32.3464L48.0292 24.2505L49.6534 24.0511L46.8878 35.7252C46.7635 36.2513 46.5842 36.6963 46.3498 37.0599C46.1159 37.4278 45.8269 37.7145 45.4829 37.9198C45.1431 38.1247 44.747 38.2549 44.2944 38.3105ZM56.4611 33.3132C55.5475 33.4254 54.7343 33.3063 54.0215 32.9559C53.3087 32.6055 52.7282 32.0735 52.2799 31.3601C51.8317 30.6466 51.5479 29.8035 51.4284 28.8306C51.3069 27.8409 51.3815 26.9452 51.6523 26.1434C51.9268 25.3369 52.3656 24.6798 52.9688 24.1721C53.5756 23.6597 54.3189 23.3495 55.1987 23.2414C55.8839 23.1573 56.517 23.2084 57.098 23.3946C57.679 23.5809 58.173 23.8809 58.5802 24.2946C58.9873 24.7083 59.2706 25.2144 59.43 25.8131L57.9327 25.997C57.764 25.5669 57.4619 25.2047 57.0265 24.9104C56.5948 24.6113 56.049 24.5023 55.3892 24.5833C54.8055 24.655 54.3124 24.8701 53.9099 25.2286C53.5111 25.5824 53.2229 26.0493 53.0451 26.6293C52.871 27.2045 52.8291 27.8601 52.9195 28.596C53.0119 29.3489 53.2108 29.99 53.5162 30.5192C53.8259 31.0479 54.2175 31.4399 54.691 31.6952C55.1688 31.9499 55.7038 32.0409 56.2959 31.9682C56.6851 31.9204 57.0299 31.8094 57.3305 31.6351C57.6311 31.4608 57.8758 31.2333 58.0646 30.9525C58.2534 30.6717 58.3725 30.348 58.4219 29.9812L59.9192 29.7974C59.9052 30.383 59.7595 30.9269 59.4819 31.4289C59.2081 31.9262 58.815 32.3437 58.3026 32.6814C57.794 33.0143 57.1801 33.2249 56.4611 33.3132Z" fill="#043933"/>
<path d="M38.5837 66.3219L41.0371 58.1896L42.4582 58.0151L39.4421 68.2774L38.2239 68.4269L32.8909 59.1898L34.2866 59.0184L38.5837 66.3219ZM33.8044 59.0776L35.001 68.8226L33.5037 69.0065L32.3072 59.2615L33.8044 59.0776ZM42.665 67.8816L41.4685 58.1366L42.9658 57.9528L44.1623 67.6978L42.665 67.8816ZM48.1293 64.9696L51.8987 56.856L53.6244 56.6441L54.8209 66.3891L53.3236 66.5729L52.3982 59.0358L48.6541 67.1463L46.9031 67.3613L45.7065 57.6163L47.2038 57.4324L48.1293 64.9696ZM63.4029 59.6938L63.5743 61.0896L58.1942 61.7502L58.0228 60.3544L63.4029 59.6938ZM57.864 56.1235L59.0605 65.8685L57.5633 66.0524L56.3667 56.3074L57.864 56.1235ZM64.0308 55.3663L65.2273 65.1113L63.73 65.2952L62.5335 55.5502L64.0308 55.3663ZM69.1879 62.3839L72.9573 54.2703L74.683 54.0584L75.8795 63.8034L74.3823 63.9872L73.4568 56.4501L69.7128 64.5606L67.9617 64.7756L66.7652 55.0306L68.2625 54.8467L69.1879 62.3839ZM83.4353 56.5129L83.6067 57.9087L77.9221 58.6066L77.7508 57.2109L83.4353 56.5129ZM86.8395 62.4577L85.643 52.7127L87.1402 52.5288L87.6606 56.7669L88.6503 56.6454L91.6321 51.9773L93.5608 51.7405L90.2037 56.9183L94.8081 61.4793L92.8794 61.7161L89.177 57.9975L87.832 58.1627L88.3368 62.2738L86.8395 62.4577ZM97.8484 64.8154C97.5947 64.8466 97.3658 64.8532 97.1618 64.8353C96.9583 64.8217 96.8162 64.8005 96.7354 64.7718L96.954 63.4054C97.3292 63.4538 97.6548 63.4481 97.9308 63.3885C98.2069 63.3288 98.439 63.1737 98.6272 62.923C98.8201 62.6761 98.9771 62.294 99.0982 61.7768L99.2839 60.9812L94.4775 51.6279L96.1017 51.4285L99.7452 58.8638L99.8467 58.8513L101.583 50.7555L103.207 50.556L100.442 62.2301C100.318 62.7563 100.138 63.2012 99.9038 63.5648C99.6699 63.9327 99.381 64.2194 99.037 64.4248C98.6972 64.6296 98.301 64.7599 97.8484 64.8154ZM106.829 63.7128L105.184 50.3134L106.63 50.1358L106.82 51.6838L106.998 51.662C107.087 51.4793 107.213 51.2449 107.375 50.9588C107.541 50.6679 107.796 50.3962 108.138 50.1438C108.484 49.8866 108.975 49.7191 109.609 49.6412C110.43 49.5404 111.178 49.6568 111.855 49.9902C112.531 50.3236 113.091 50.8452 113.534 51.5549C113.978 52.2647 114.262 53.1314 114.388 54.1549C114.515 55.187 114.449 56.1031 114.191 56.9033C113.932 57.6992 113.518 58.3427 112.947 58.8335C112.375 59.3201 111.684 59.6133 110.872 59.713C110.246 59.7898 109.732 59.7478 109.33 59.5867C108.927 59.4215 108.608 59.2181 108.373 58.9765C108.136 58.7308 107.952 58.5258 107.821 58.3617L107.694 58.3773L108.326 63.5289L106.829 63.7128ZM107.254 55.0052C107.344 55.7411 107.532 56.3771 107.817 56.9132C108.101 57.445 108.47 57.844 108.923 58.1104C109.376 58.3725 109.903 58.4666 110.503 58.3929C111.129 58.316 111.632 58.0869 112.01 57.7056C112.392 57.3196 112.654 56.8323 112.796 56.2438C112.942 55.6505 112.973 55.0071 112.888 54.3134C112.804 53.6282 112.622 53.0237 112.343 52.4998C112.068 51.9712 111.699 51.5721 111.236 51.3026C110.778 51.0283 110.231 50.9301 109.597 51.008C108.988 51.0828 108.495 51.3 108.118 51.6597C107.741 52.0151 107.481 52.4807 107.337 53.0565C107.192 53.6281 107.165 54.2777 107.254 55.0052ZM121.251 58.4386C120.337 58.5507 119.524 58.4316 118.811 58.0812C118.099 57.7308 117.518 57.1989 117.07 56.4854C116.622 55.7719 116.338 54.9288 116.218 53.956C116.097 52.9662 116.172 52.0705 116.442 51.2687C116.717 50.4622 117.156 49.8051 117.759 49.2974C118.366 48.785 119.109 48.4748 119.989 48.3668C120.674 48.2826 121.307 48.3337 121.888 48.52C122.469 48.7062 122.963 49.0062 123.37 49.4199C123.777 49.8336 124.061 50.3398 124.22 50.9384L122.723 51.1223C122.554 50.6922 122.252 50.33 121.816 50.0357C121.385 49.7367 120.839 49.6276 120.179 49.7087C119.595 49.7803 119.102 49.9954 118.7 50.354C118.301 50.7078 118.013 51.1746 117.835 51.7546C117.661 52.3298 117.619 52.9854 117.709 53.7214C117.802 54.4742 118.001 55.1153 118.306 55.6445C118.616 56.1732 119.007 56.5652 119.481 56.8205C119.959 57.0752 120.494 57.1662 121.086 57.0935C121.475 57.0458 121.82 56.9347 122.121 56.7604C122.421 56.5861 122.666 56.3586 122.855 56.0778C123.043 55.797 123.162 55.4733 123.212 55.1066L124.709 54.9227C124.695 55.5083 124.549 56.0522 124.272 56.5542C123.998 57.0515 123.605 57.469 123.093 57.8067C122.584 58.1397 121.97 58.3503 121.251 58.4386ZM32.757 89.2484L31.5605 79.5034L39.2245 78.5623L40.421 88.3073L38.9237 88.4912L37.8986 80.142L33.2291 80.7153L34.2543 89.0645L32.757 89.2484ZM47.1393 87.6885C46.2595 87.7966 45.4619 87.682 44.7465 87.3448C44.0352 87.0071 43.4473 86.4846 42.9827 85.7774C42.5222 85.0698 42.2302 84.2126 42.1066 83.2059C41.982 82.1908 42.0572 81.2821 42.3322 80.4799C42.6114 79.6771 43.0553 79.0258 43.6637 78.5261C44.2763 78.0258 45.0225 77.7216 45.9023 77.6136C46.782 77.5056 47.5775 77.6204 48.2887 77.9582C49.0042 78.2954 49.5924 78.8199 50.0533 79.5318C50.5185 80.2432 50.8134 81.1065 50.938 82.1216C51.0616 83.1282 50.9836 84.0308 50.7038 84.8294C50.4283 85.6275 49.9842 86.2766 49.3715 86.7769C48.7631 87.2766 48.0191 87.5805 47.1393 87.6885ZM46.9742 86.3435C47.6424 86.2615 48.1712 86.0227 48.5606 85.6271C48.95 85.2315 49.214 84.7419 49.3527 84.1581C49.4914 83.5743 49.5207 82.9568 49.4408 82.3054C49.3608 81.6541 49.1826 81.0598 48.9063 80.5228C48.63 79.9857 48.2548 79.5702 47.7808 79.2763C47.3068 78.9825 46.7357 78.8766 46.0674 78.9586C45.3991 79.0407 44.8706 79.2816 44.4817 79.6814C44.0929 80.0812 43.8294 80.5751 43.6912 81.1631C43.553 81.7511 43.5239 82.3707 43.6039 83.0221C43.6839 83.6735 43.8618 84.2656 44.1376 84.7984C44.4134 85.3313 44.788 85.7425 45.2615 86.0322C45.735 86.3218 46.3059 86.4256 46.9742 86.3435ZM64.8146 77.6357L63.5163 78.1815C63.4042 77.9677 63.2526 77.7652 63.0617 77.574C62.8745 77.378 62.6328 77.2273 62.3365 77.122C62.0402 77.0167 61.6742 76.9908 61.2386 77.0443C60.6422 77.1176 60.1621 77.316 59.7983 77.6398C59.4381 77.9588 59.2838 78.3276 59.3352 78.7464C59.3809 79.1186 59.5524 79.3959 59.8495 79.5784C60.1467 79.7609 60.5917 79.8887 61.1846 79.9619L62.6748 80.1395C63.572 80.244 64.261 80.4879 64.7417 80.8711C65.2219 81.25 65.5037 81.78 65.5874 82.461C65.6559 83.0193 65.5565 83.5381 65.289 84.0175C65.0258 84.4963 64.6243 84.8976 64.0845 85.2215C63.5446 85.5454 62.8961 85.7538 62.139 85.8468C61.1451 85.9688 60.2959 85.8541 59.5916 85.5027C58.8873 85.1513 58.3975 84.5717 58.1223 83.764L59.4998 83.2342C59.6996 83.742 60.0038 84.104 60.4124 84.32C60.8253 84.5355 61.3383 84.6056 61.9516 84.5303C62.6495 84.4446 63.1854 84.2285 63.5593 83.8821C63.937 83.5309 64.1001 83.1459 64.0487 82.7272C64.0071 82.3888 63.8539 82.12 63.589 81.9207C63.3236 81.7171 62.9385 81.5884 62.4339 81.5344L60.763 81.3532C59.8446 81.2513 59.1487 81.004 58.6755 80.6113C58.2059 80.2138 57.9299 79.6788 57.8473 79.0063C57.7798 78.4565 57.8744 77.9511 58.1313 77.4903C58.3923 77.0289 58.7766 76.6447 59.2842 76.3376C59.796 76.0301 60.3945 75.8342 61.0796 75.7501C62.044 75.6317 62.8271 75.7502 63.4288 76.1056C64.0349 76.4606 64.4968 76.9706 64.8146 77.6357ZM72.1584 84.6166C71.2787 84.7246 70.4811 84.61 69.7656 84.2728C69.0544 83.9351 68.4664 83.4126 68.0018 82.7055C67.5414 81.9978 67.2494 81.1406 67.1258 80.134C67.0011 79.1189 67.0763 78.2102 67.3513 77.4079C67.6306 76.6051 68.0744 75.9538 68.6828 75.4541C69.2954 74.9538 70.0416 74.6497 70.9214 74.5417C71.8012 74.4336 72.5967 74.5485 73.3079 74.8862C74.0233 75.2234 74.6115 75.748 75.0725 76.4599C75.5376 77.1713 75.8325 78.0345 75.9572 79.0496C76.0808 80.0563 76.0027 80.9589 75.7229 81.7574C75.4474 82.5555 75.0033 83.2047 74.3907 83.7049C73.7823 84.2047 73.0382 84.5085 72.1584 84.6166ZM71.9933 83.2716C72.6616 83.1895 73.1904 82.9507 73.5797 82.5551C73.9691 82.1595 74.2331 81.6699 74.3718 81.0861C74.5105 80.5024 74.5399 79.8848 74.4599 79.2335C74.3799 78.5821 74.2018 77.9879 73.9255 77.4508C73.6491 76.9137 73.274 76.4982 72.8 76.2044C72.326 75.9105 71.7548 75.8046 71.0865 75.8867C70.4183 75.9687 69.8897 76.2097 69.5009 76.6094C69.112 77.0092 68.8485 77.5031 68.7104 78.0911C68.5722 78.6791 68.5431 79.2988 68.6231 79.9501C68.703 80.6015 68.8809 81.1936 69.1567 81.7265C69.4325 82.2593 69.8072 82.6706 70.2807 82.9602C70.7541 83.2498 71.325 83.3536 71.9933 83.2716ZM81.9778 73.3129L82.1336 74.5818L76.8805 75.2268L76.7247 73.9579L81.9778 73.3129ZM79.4946 83.5097L78.1329 72.4197C78.0644 71.8614 78.1384 71.38 78.3549 70.9756C78.5714 70.5712 78.8776 70.2503 79.2735 70.0128C79.6694 69.7752 80.1 69.6279 80.5652 69.5708C80.9332 69.5256 81.2371 69.5183 81.477 69.549C81.7169 69.5797 81.8971 69.6133 82.0175 69.6501L81.745 70.9973C81.6658 70.9813 81.5561 70.9625 81.4161 70.9411C81.2803 70.9191 81.1046 70.9214 80.8889 70.9479C80.394 71.0086 80.0519 71.1773 79.8626 71.4538C79.6776 71.7299 79.6146 72.109 79.6738 72.5911L80.9919 83.3259L79.4946 83.5097ZM88.3143 72.5349L88.4701 73.8038L83.4199 74.4238L83.2642 73.155L88.3143 72.5349ZM84.4494 70.6395L85.9467 70.4557L87.0871 79.7439C87.139 80.1668 87.2393 80.4765 87.3879 80.6729C87.5403 80.8646 87.7181 80.9844 87.9215 81.0324C88.1286 81.0757 88.3422 81.0838 88.5621 81.0568C88.727 81.0366 88.8614 81.0115 88.965 80.9816C89.0682 80.9475 89.1507 80.9202 89.2126 80.8997L89.6822 82.2073C89.5854 82.2578 89.4484 82.3133 89.2712 82.3737C89.0945 82.4383 88.8666 82.4878 88.5874 82.5221C88.1645 82.574 87.7388 82.5339 87.3104 82.4019C86.8863 82.2694 86.5181 82.0334 86.206 81.6939C85.898 81.3539 85.7093 80.9005 85.6397 80.3337L84.4494 70.6395ZM102.762 72.9763L101.464 73.5221C101.352 73.3083 101.2 73.1058 101.009 72.9146C100.822 72.7186 100.58 72.568 100.284 72.4627C99.9876 72.3574 99.6217 72.3315 99.186 72.385C98.5896 72.4582 98.1095 72.6567 97.7457 72.9804C97.3856 73.2994 97.2312 73.6683 97.2827 74.087C97.3284 74.4592 97.4998 74.7365 97.797 74.919C98.0942 75.1015 98.5392 75.2293 99.1321 75.3025L100.622 75.4802C101.519 75.5847 102.208 75.8285 102.689 76.2117C103.169 76.5907 103.451 77.1206 103.535 77.8016C103.603 78.3599 103.504 78.8787 103.236 79.3581C102.973 79.8369 102.572 80.2383 102.032 80.5622C101.492 80.8861 100.844 81.0945 100.086 81.1874C99.0925 81.3095 98.2434 81.1948 97.5391 80.8433C96.8347 80.4919 96.345 79.9123 96.0698 79.1046L97.4473 78.5748C97.647 79.0827 97.9512 79.4446 98.3599 79.6606C98.7727 79.8761 99.2858 79.9462 99.8991 79.8709C100.597 79.7852 101.133 79.5692 101.507 79.2227C101.884 78.8715 102.048 78.4865 101.996 78.0678C101.955 77.7295 101.801 77.4606 101.536 77.2613C101.271 77.0577 100.886 76.929 100.381 76.875L98.7104 76.6938C97.792 76.5919 97.0962 76.3446 96.6229 75.9519C96.1534 75.5545 95.8773 75.0195 95.7947 74.347C95.7272 73.7971 95.8219 73.2918 96.0787 72.8309C96.3398 72.3695 96.7241 71.9853 97.2316 71.6783C97.7434 71.3707 98.3419 71.1748 99.0271 71.0907C99.9914 70.9723 100.775 71.0908 101.376 71.4463C101.982 71.8012 102.444 72.3112 102.762 72.9763ZM107.082 76.516L106.829 74.6666L107.133 74.6292L110.864 69.7661L112.716 69.5387L108.738 74.6898L108.611 74.7054L107.082 76.516ZM106.122 80.2403L104.527 67.2469L106.024 67.0631L107.619 80.0564L106.122 80.2403ZM112.314 79.48L107.916 75.1256L108.854 73.9543L114.218 79.2463L112.314 79.48ZM115.84 79.0471L114.644 69.3021L116.141 69.1182L117.337 78.8632L115.84 79.0471ZM115.205 67.5844C114.914 67.6202 114.65 67.5517 114.414 67.3789C114.182 67.2056 114.049 66.9793 114.015 66.7002C113.981 66.421 114.055 66.1693 114.238 65.9451C114.425 65.7203 114.664 65.59 114.956 65.5542C115.248 65.5184 115.51 65.5871 115.741 65.7605C115.977 65.9333 116.112 66.1593 116.147 66.4384C116.181 66.7176 116.105 66.9695 115.917 67.1943C115.735 67.4185 115.497 67.5486 115.205 67.5844ZM119.982 65.3493L121.577 78.3426L120.08 78.5265L118.484 65.5332L119.982 65.3493ZM124.221 64.8288L125.817 77.8221L124.319 78.0059L122.724 65.0126L124.221 64.8288ZM134.533 69.0753L133.235 69.6211C133.123 69.4073 132.971 69.2048 132.78 69.0136C132.593 68.8176 132.351 68.667 132.055 68.5617C131.759 68.4564 131.393 68.4305 130.957 68.484C130.361 68.5572 129.881 68.7557 129.517 69.0794C129.157 69.3984 129.002 69.7673 129.054 70.186C129.1 70.5582 129.271 70.8355 129.568 71.018C129.865 71.2005 130.31 71.3283 130.903 71.4015L132.393 71.5792C133.291 71.6837 133.98 71.9275 134.46 72.3107C134.94 72.6897 135.222 73.2196 135.306 73.9006C135.375 74.4589 135.275 74.9777 135.008 75.4571C134.744 75.9359 134.343 76.3373 133.803 76.6612C133.263 76.985 132.615 77.1935 131.858 77.2864C130.864 77.4085 130.015 77.2938 129.31 76.9423C128.606 76.5909 128.116 76.0113 127.841 75.2036L129.218 74.6738C129.418 75.1817 129.722 75.5436 130.131 75.7596C130.544 75.9751 131.057 76.0452 131.67 75.9699C132.368 75.8842 132.904 75.6681 133.278 75.3217C133.656 74.9705 133.819 74.5855 133.767 74.1668C133.726 73.8284 133.573 73.5596 133.308 73.3603C133.042 73.1567 132.657 73.028 132.153 72.974L130.482 72.7928C129.563 72.6909 128.867 72.4436 128.394 72.0509C127.925 71.6535 127.648 71.1185 127.566 70.446C127.498 69.8961 127.593 69.3908 127.85 68.9299C128.111 68.4685 128.495 68.0843 129.003 67.7772C129.515 67.4697 130.113 67.2738 130.798 67.1897C131.763 67.0713 132.546 67.1898 133.147 67.5453C133.753 67.9002 134.215 68.4102 134.533 69.0753Z" fill="#043933"/>
<path d="M6.86283 67.1455L16.6439 65.9446L15.6717 58.0266L17.5589 73.3968" stroke="#043933" stroke-width="0.938525"/>
<path d="M155.432 48.9141L145.651 50.1151L144.678 42.1971L146.566 57.5673" stroke="#043933" stroke-width="0.938525"/>
</svg>
