<svg width="169" height="15" viewBox="0 0 169 15" fill="none" xmlns="http://www.w3.org/2000/svg">
<path fill-rule="evenodd" clip-rule="evenodd" d="M5.51826 5.32653L8.81732 5.69388C12.3362 6.08171 14.1557 7.51028 14.1557 9.91835C14.1557 12.7143 11.6364 14.2857 7.03784 14.2857C2.31935 14.2857 0 12.7143 0 9.53066H3.21902C3.21902 10.9184 4.61859 11.6939 7.11787 11.6939C9.63707 11.6939 10.7568 11.2244 10.7568 10.0204C10.7568 9.12247 9.95692 8.73469 8.51742 8.57141L5.35834 8.22457C2.05941 7.85717 0.399897 6.48976 0.399897 4.14287C0.399897 1.63275 3.0591 0 6.83793 0C11.0167 0 13.4958 1.63275 13.4958 4.32652H10.3568C10.2169 3.14287 9.07727 2.53069 6.89787 2.53069C4.7186 2.53069 3.71892 3.06132 3.71892 4.04081C3.71892 4.89796 4.35865 5.20419 5.51826 5.32653ZM98.87 11.4694C96.1708 11.4694 94.5909 9.87755 94.5909 7.14288C94.5909 4.40821 96.1708 2.81636 98.87 2.81636C100.969 2.81636 102.209 3.65299 102.649 5.30611H106.088C105.748 2.14286 102.809 0 98.87 0C94.1711 0 91.1121 2.81636 91.1121 7.14288C91.1121 11.4897 94.1513 14.2857 98.87 14.2857C102.969 14.2857 105.828 12.0612 106.128 8.653H102.689C102.489 10.4286 101.089 11.4694 98.87 11.4694ZM30.1107 0.347737H26.5917L21.4134 5.71511H19.8538V0.347737H16.6947V13.9395H19.8538V8.28655H21.4134L26.5317 13.9395H30.6306L24.0242 6.66084L30.1107 0.347737ZM39.0289 0.347737H42.188V11.3273H49.3856V13.9395H39.0289V0.347737ZM54.6631 0.347737H51.5044V13.9395H61.8608V11.3273H54.6631V0.347737ZM67.1398 2.95992H75.0976V0.347737H63.981V13.9395H67.1398V8.93952H73.7381V6.32733H67.1398V2.95992ZM35.6294 13.9395H32.4703V0.347737H35.6294V13.9395ZM80.0565 8.4294L82.5147 1.858H82.6144L85.0613 8.4294H80.0565ZM79.9553 0.347737L74.8769 13.9395H77.9959L79.1025 10.9805H86.0114L87.1129 13.9395H90.5718L85.4735 0.347737H79.9553ZM125.441 0.349911H133.502V3.4724H125.442V10.8171H133.502V13.9395H125.441V10.8179H122.103V3.47103H125.441V0.349911ZM147.218 6.93956H142.919V2.95992H147.218C148.697 2.95992 149.617 3.73552 149.617 4.95993C149.617 6.18448 148.697 6.93956 147.218 6.93956ZM152.896 4.95993C152.896 2.12329 150.737 0.347737 147.218 0.347737H139.74V13.9395H142.919V9.55175H146.038L149.617 13.9395H153.476L149.398 8.94122C151.607 8.39901 152.896 6.97814 152.896 4.95993ZM136.841 10.8179H133.502V3.47103H136.841V10.8179ZM164.753 0.347737L160.974 6.38851L157.195 0.347737H153.516L159.235 9.28655V13.9395H162.393V9.28655L168.132 0.347737H164.753ZM112.186 2.95992H107.188V0.347737H120.363V2.95992H115.345V13.9395H112.186V2.95992Z" fill="white"/>
</svg>
