<svg width="656" height="657" viewBox="0 0 656 657" fill="none" xmlns="http://www.w3.org/2000/svg">
<mask id="path-1-inside-1_5301_5" fill="white">
<path fill-rule="evenodd" clip-rule="evenodd" d="M289.938 450.913C289.031 457.466 287.664 464.036 285.817 470.583C264.053 547.74 183.861 592.645 106.705 570.88C29.5479 549.116 -15.3566 468.925 6.40763 391.768C28.1719 314.611 108.363 269.707 185.52 291.471C191.662 293.204 197.599 295.306 203.315 297.748L205.81 288.904C200.042 288.008 194.265 286.755 188.506 285.13C111.349 263.366 66.4447 183.175 88.2089 106.018C109.973 28.8614 190.164 -16.0431 267.321 5.72113C344.478 27.4854 389.382 107.677 367.618 184.833C365.763 191.408 363.485 197.749 360.82 203.834L366.812 205.524C367.719 198.943 369.09 192.347 370.944 185.772C392.708 108.615 472.9 63.7108 550.056 85.475C627.213 107.239 672.118 187.431 650.353 264.587C628.589 341.744 548.398 386.648 471.241 364.884C465.027 363.131 459.023 361 453.245 358.521L450.696 367.558C456.917 368.464 463.151 369.785 469.365 371.538C546.522 393.302 591.426 473.493 569.662 550.65C547.898 627.806 467.706 672.711 390.55 650.947C313.393 629.182 268.489 548.991 290.253 471.834C292.1 465.287 294.367 458.972 297.018 452.91L289.938 450.913Z"/>
</mask>
<path d="M289.938 450.913L290.481 448.988L288.272 448.365L287.957 450.638L289.938 450.913ZM203.315 297.748L202.529 299.587L204.622 300.481L205.24 298.291L203.315 297.748ZM205.81 288.904L207.734 289.447L208.347 287.274L206.117 286.928L205.81 288.904ZM360.82 203.834L358.988 203.031L358.066 205.135L360.277 205.759L360.82 203.834ZM366.812 205.524L366.269 207.449L368.479 208.072L368.793 205.797L366.812 205.524ZM453.245 358.521L454.034 356.683L451.939 355.784L451.32 357.978L453.245 358.521ZM450.696 367.558L448.771 367.015L448.152 369.209L450.408 369.537L450.696 367.558ZM297.018 452.91L298.851 453.711L299.77 451.608L297.561 450.985L297.018 452.91ZM287.742 471.126C289.614 464.49 290.999 457.831 291.919 451.187L287.957 450.638C287.062 457.102 285.714 463.581 283.892 470.04L287.742 471.126ZM106.162 572.805C184.381 594.869 265.678 549.346 287.742 471.126L283.892 470.04C262.428 546.134 183.341 590.42 107.248 568.955L106.162 572.805ZM4.48274 391.225C-17.5814 469.445 27.9418 550.741 106.162 572.805L107.248 568.955C31.1539 547.491 -13.1318 468.405 8.33251 392.311L4.48274 391.225ZM186.063 289.546C107.843 267.482 26.5468 313.005 4.48274 391.225L8.33251 392.311C29.7969 316.217 108.883 271.932 184.977 293.396L186.063 289.546ZM204.101 295.909C198.306 293.433 192.288 291.302 186.063 289.546L184.977 293.396C191.036 295.105 196.892 297.179 202.529 299.587L204.101 295.909ZM205.24 298.291L207.734 289.447L203.885 288.361L201.39 297.205L205.24 298.291ZM187.963 287.055C193.8 288.702 199.655 289.972 205.503 290.88L206.117 286.928C200.428 286.044 194.731 284.808 189.049 283.205L187.963 287.055ZM86.284 105.475C64.2199 183.695 109.743 264.991 187.963 287.055L189.049 283.205C112.955 261.741 68.6694 182.655 90.1338 106.561L86.284 105.475ZM267.864 3.79625C189.644 -18.2679 108.348 27.2553 86.284 105.475L90.1338 106.561C111.598 30.4674 190.685 -13.8183 266.778 7.64602L267.864 3.79625ZM369.543 185.376C391.607 107.157 346.084 25.8604 267.864 3.79625L266.778 7.64602C342.872 29.1104 387.158 108.197 365.693 184.29L369.543 185.376ZM362.652 204.636C365.353 198.467 367.663 192.04 369.543 185.376L365.693 184.29C363.864 190.776 361.616 197.03 358.988 203.031L362.652 204.636ZM360.277 205.759L366.269 207.449L367.354 203.599L361.363 201.909L360.277 205.759ZM368.793 205.797C369.688 199.307 371.04 192.801 372.869 186.315L369.019 185.229C367.14 191.892 365.751 198.579 364.83 205.251L368.793 205.797ZM372.869 186.315C394.333 110.221 473.42 65.9355 549.513 87.3999L550.599 83.5501C472.38 61.486 391.083 107.009 369.019 185.229L372.869 186.315ZM549.513 87.3999C625.607 108.864 669.893 187.951 648.429 264.044L652.278 265.13C674.342 186.91 628.819 105.614 550.599 83.5501L549.513 87.3999ZM648.429 264.044C626.964 340.138 547.878 384.424 471.784 362.959L470.698 366.809C548.918 388.873 630.214 343.35 652.278 265.13L648.429 264.044ZM471.784 362.959C465.654 361.23 459.732 359.127 454.034 356.683L452.457 360.359C458.314 362.872 464.4 365.033 470.698 366.809L471.784 362.959ZM451.32 357.978L448.771 367.015L452.621 368.101L455.17 359.064L451.32 357.978ZM469.908 369.613C463.61 367.836 457.291 366.498 450.984 365.579L450.408 369.537C456.543 370.431 462.692 371.733 468.822 373.462L469.908 369.613ZM571.587 551.193C593.651 472.973 548.128 391.677 469.908 369.613L468.822 373.462C544.916 394.927 589.201 474.013 567.737 550.107L571.587 551.193ZM390.007 652.872C468.227 674.936 549.523 629.412 571.587 551.193L567.737 550.107C546.273 626.2 467.186 670.486 391.093 649.022L390.007 652.872ZM288.328 471.292C266.264 549.511 311.787 630.807 390.007 652.872L391.093 649.022C314.999 627.557 270.713 548.471 292.178 472.377L288.328 471.292ZM295.186 452.108C292.498 458.254 290.2 464.656 288.328 471.292L292.178 472.377C294 465.918 296.236 459.689 298.851 453.711L295.186 452.108ZM297.561 450.985L290.481 448.988L289.395 452.838L296.475 454.835L297.561 450.985Z" fill="#FC5F7C" mask="url(#path-1-inside-1_5301_5)"/>
</svg>
