<svg width="268" height="205" viewBox="0 0 268 205" fill="none" xmlns="http://www.w3.org/2000/svg">
<path fill-rule="evenodd" clip-rule="evenodd" d="M136.617 24.9152L36.4702 0L2.69053e-06 146.592L100.147 171.507C100.147 171.507 100.147 171.507 100.147 171.507C102.341 162.689 111.267 157.319 120.084 159.513C128.902 161.707 134.271 170.633 132.078 179.451C132.078 179.451 132.078 179.451 132.078 179.451L230.774 204.006L267.244 57.4135L168.548 32.8592C166.354 41.6763 157.428 47.0456 148.611 44.852C139.793 42.6584 134.424 33.7325 136.617 24.9152Z" fill="#FC5F7C"/>
<path d="M86.0706 50.2992C84.5027 49.9091 83.2447 49.203 82.2965 48.1809C81.3484 47.1588 80.7311 45.9222 80.4446 44.4712C80.1581 43.0202 80.2225 41.46 80.6379 39.7905C81.0605 38.0919 81.7455 36.6706 82.693 35.5266C83.6496 34.3772 84.7816 33.5758 86.0891 33.1226C87.4057 32.6639 88.8189 32.6224 90.3287 32.998C91.5046 33.2906 92.5102 33.772 93.3455 34.4423C94.1808 35.1126 94.8021 35.9146 95.2096 36.8485C95.617 37.7823 95.7633 38.7899 95.6484 39.8713L93.0788 39.232C93.0725 38.4211 92.8049 37.6376 92.2761 36.8817C91.7564 36.1204 90.9303 35.5988 89.798 35.3171C88.7963 35.0679 87.8529 35.1107 86.968 35.4455C86.0921 35.7749 85.3263 36.359 84.6706 37.1979C84.0238 38.0314 83.5434 39.0796 83.2292 40.3426C82.9077 41.6347 82.831 42.8104 82.9992 43.8696C83.1745 44.9307 83.5701 45.8192 84.1859 46.5351C84.809 47.2528 85.6287 47.7381 86.6449 47.9909C87.3127 48.157 87.9477 48.1917 88.5499 48.0949C89.1521 47.998 89.6961 47.7788 90.1819 47.4372C90.6677 47.0956 91.0663 46.6397 91.3777 46.0697L93.9473 46.709C93.5565 47.6601 92.976 48.4599 92.2057 49.1084C91.4445 49.7515 90.5379 50.1889 89.4859 50.4205C88.4431 50.6466 87.3046 50.6062 86.0706 50.2992ZM100.476 53.5131L104.637 36.7889L107.206 37.4282L105.397 44.7015L107.095 45.1241L114.915 39.3461L118.225 40.1695L109.47 46.5473L114.152 56.9154L110.842 56.0919L107.109 47.6711L104.801 47.0969L103.046 54.1524L100.476 53.5131Z" fill="white"/>
<path d="M165.605 65.6947L176.881 54.7641L179.842 55.5009L175.681 72.2251L173.112 71.5858L176.33 58.6507L165.098 69.5921L162.093 68.8444L166.254 52.1203L168.823 52.7596L165.605 65.6947ZM181.396 78.7341L183.184 71.548L184.578 71.8947C185.007 71.6239 185.397 71.3123 185.747 70.96C186.097 70.6076 186.433 70.1709 186.755 69.6499C187.086 69.1234 187.419 68.4663 187.754 67.6786C188.091 66.8836 188.455 65.9144 188.847 64.771L191.061 58.2919L201.687 60.9357L198.123 75.2645L200.692 75.9037L198.904 83.0899L196.335 82.4506L197.527 77.6599L185.158 74.5826L183.966 79.3734L181.396 78.7341ZM187.496 72.6207L195.553 74.6252L198.522 62.6918L192.86 61.2832L191.373 65.3994C190.757 67.1037 190.152 68.5756 189.558 69.8154C188.964 71.0552 188.277 71.9902 187.496 72.6207ZM207.493 80.1393L211.654 63.4152L214.223 64.0544L212.414 71.3277L214.112 71.7503L221.932 65.9723L225.242 66.7958L216.487 73.1735L221.168 83.5416L217.858 82.7181L214.126 74.2974L211.818 73.7231L210.062 80.7786L207.493 80.1393ZM232.771 86.8444C231.711 86.5808 230.799 86.1419 230.035 85.5277C229.272 84.9063 228.731 84.1514 228.413 83.2628C228.096 82.3669 228.073 81.3746 228.344 80.2858C228.583 79.3277 228.965 78.5979 229.49 78.0966C230.017 77.588 230.639 77.2417 231.356 77.0577C232.072 76.8736 232.832 76.7929 233.636 76.8156C234.449 76.8328 235.256 76.8872 236.058 76.9788C237.107 77.101 237.955 77.208 238.603 77.2998C239.259 77.3861 239.754 77.3819 240.086 77.2872C240.425 77.1943 240.646 76.9409 240.749 76.5272L240.77 76.4401C241.038 75.3658 240.951 74.4579 240.512 73.7164C240.079 72.9767 239.271 72.4597 238.088 72.1653C236.861 71.8601 235.833 71.8894 235.002 72.2532C234.172 72.617 233.539 73.0685 233.104 73.6078L230.882 72.13C231.57 71.2222 232.348 70.5754 233.215 70.1898C234.09 69.7988 234.988 69.5982 235.908 69.5881C236.837 69.5725 237.722 69.6695 238.564 69.8789C239.101 70.0126 239.702 70.2314 240.366 70.5354C241.04 70.834 241.654 71.2605 242.21 71.815C242.773 72.3713 243.174 73.0993 243.413 73.9988C243.651 74.8984 243.606 76.0123 243.275 77.3407L240.534 88.3595L237.964 87.7202L238.528 85.4555L238.397 85.4229C238.132 85.7425 237.745 86.0587 237.236 86.3713C236.727 86.6839 236.098 86.9014 235.351 87.0238C234.604 87.1462 233.744 87.0864 232.771 86.8444ZM233.737 84.6337C234.753 84.8865 235.66 84.9 236.456 84.6741C237.259 84.45 237.917 84.0665 238.43 83.5235C238.95 82.9823 239.297 82.3632 239.47 81.6664L240.055 79.3146C239.914 79.4181 239.645 79.4783 239.247 79.4951C238.859 79.5064 238.416 79.4924 237.917 79.4531C237.427 79.4083 236.95 79.3589 236.485 79.305C236.03 79.2457 235.659 79.1998 235.375 79.1675C234.685 79.0885 234.026 79.0747 233.396 79.1262C232.776 79.1723 232.24 79.3434 231.789 79.6397C231.346 79.9304 231.044 80.4025 230.881 81.0557C230.659 81.9486 230.821 82.7058 231.368 83.3274C231.924 83.9436 232.714 84.379 233.737 84.6337Z" fill="white"/>
<path d="M39.1653 114.634L40.6233 108.773L76.6552 74.2981L80.9068 75.3558L78.6484 84.4337L75.7756 83.719L48.5509 109.77L48.4365 110.229L83.254 118.891L81.6817 125.211L39.1653 114.634ZM63.8567 133.589L67.3015 119.742L67.9805 117.013L78.4937 74.7555L85.2734 76.4422L70.6363 135.276L63.8567 133.589ZM118.147 147.95C114.777 147.111 111.908 145.686 109.541 143.674C107.174 141.661 105.468 139.284 104.421 136.543C103.374 133.801 103.146 130.918 103.736 127.892L110.631 129.607C110.237 132.336 110.895 134.838 112.607 137.115C114.342 139.377 116.713 140.882 119.72 141.63C122.133 142.23 124.418 142.199 126.576 141.536C128.753 140.878 130.624 139.696 132.187 137.99C133.774 136.27 134.88 134.155 135.504 131.646C136.142 129.08 136.147 126.651 135.517 124.359C134.911 122.053 133.777 120.072 132.114 118.418C130.451 116.764 128.368 115.615 125.864 114.972C124.068 114.505 122.151 114.322 120.112 114.425C118.078 114.509 116.339 114.839 114.894 115.415L108.429 112.952L119.195 84.8816L149.761 92.4859L148.189 98.806L123.598 92.6881L117.213 109.525L117.558 109.611C119.003 108.953 120.713 108.535 122.69 108.355C124.667 108.176 126.641 108.332 128.614 108.823C132.214 109.718 135.208 111.378 137.594 113.802C140.005 116.212 141.645 119.101 142.515 122.47C143.405 125.843 143.375 129.436 142.427 133.247C141.493 137.001 139.817 140.142 137.398 142.672C135.002 145.188 132.128 146.934 128.773 147.909C125.424 148.866 121.882 148.879 118.147 147.95ZM192.431 153.863L193.203 150.76C193.737 148.615 194.666 146.762 195.99 145.2C197.338 143.623 198.997 142.511 200.969 141.863C202.964 141.2 205.187 141.173 207.639 141.783C210.128 142.403 212.08 143.468 213.494 144.979C214.912 146.471 215.829 148.224 216.243 150.238C216.661 152.234 216.604 154.304 216.07 156.449L215.298 159.552C214.765 161.697 213.833 163.56 212.505 165.141C211.2 166.707 209.559 167.825 207.583 168.492C205.631 169.145 203.429 169.167 200.978 168.557C198.488 167.938 196.524 166.88 195.087 165.383C193.654 163.868 192.718 162.11 192.281 160.109C191.847 158.09 191.898 156.008 192.431 153.863ZM199.064 152.218L198.292 155.321C197.849 157.102 197.872 158.806 198.362 160.433C198.857 162.04 200.139 163.101 202.207 163.616C204.218 164.116 205.809 163.77 206.98 162.577C208.176 161.369 208.995 159.875 209.438 158.094L210.21 154.991C210.653 153.21 210.646 151.52 210.19 149.922C209.738 148.305 208.478 147.239 206.409 146.724C204.399 146.224 202.776 146.573 201.543 147.771C200.333 148.955 199.507 150.437 199.064 152.218ZM171.506 112.904L172.278 109.802C172.811 107.657 173.74 105.803 175.064 104.241C176.412 102.665 178.072 101.553 180.043 100.904C182.038 100.242 184.262 100.215 186.713 100.825C189.203 101.444 191.155 102.51 192.568 104.02C193.987 105.512 194.903 107.265 195.317 109.28C195.736 111.276 195.678 113.346 195.145 115.491L194.373 118.593C193.839 120.738 192.908 122.601 191.579 124.182C190.274 125.749 188.634 126.866 186.657 127.534C184.705 128.187 182.504 128.209 180.052 127.599C177.562 126.979 175.599 125.921 174.161 124.425C172.728 122.909 171.793 121.151 171.355 119.151C170.922 117.132 170.972 115.049 171.506 112.904ZM178.138 111.26L177.366 114.362C176.923 116.143 176.946 117.847 177.437 119.474C177.931 121.082 179.213 122.143 181.281 122.658C183.292 123.158 184.883 122.812 186.055 121.618C187.25 120.411 188.069 118.916 188.512 117.135L189.284 114.033C189.727 112.252 189.721 110.562 189.264 108.964C188.812 107.347 187.552 106.281 185.484 105.766C183.473 105.266 181.851 105.615 180.617 106.813C179.407 107.996 178.581 109.479 178.138 111.26ZM162.568 158.147L217.653 109.377L224.203 111.006L169.118 159.777L162.568 158.147Z" fill="white"/>
<path d="M17.8736 74.7491L33.1134 78.5405L36.1826 66.2036L30.2246 90.1518" stroke="white" stroke-width="1.49565"/>
<path d="M249.374 132.341L234.134 128.549L237.203 116.212L231.245 140.161" stroke="white" stroke-width="1.49565"/>
</svg>
