<svg width="110" height="10" viewBox="0 0 110 10" fill="none" xmlns="http://www.w3.org/2000/svg">
<path fill-rule="evenodd" clip-rule="evenodd" d="M3.61032 3.41412L5.76872 3.64961C8.07097 3.89817 9.26134 4.81384 9.26134 6.35733C9.26134 8.14946 7.61313 9.1567 4.60449 9.1567C1.51743 9.1567 0 8.14946 0 6.10885H2.10604C2.10604 6.99838 3.02171 7.49543 4.65685 7.49543C6.30506 7.49543 7.03759 7.1945 7.03759 6.42276C7.03759 5.84722 6.51433 5.59866 5.57252 5.49402L3.50569 5.27168C1.34737 5.03619 0.261632 4.15972 0.261632 2.65544C0.261632 1.04653 2.00141 0 4.47372 0C7.20766 0 8.82964 1.04653 8.82964 2.77315H6.77596C6.68439 2.01447 5.93879 1.62207 4.51292 1.62207C3.08714 1.62207 2.4331 1.9622 2.4331 2.59001C2.4331 3.13942 2.85165 3.3357 3.61032 3.41412ZM64.686 7.3515C62.9201 7.3515 61.8866 6.33119 61.8866 4.57835C61.8866 2.82551 62.9201 1.8052 64.686 1.8052C66.0595 1.8052 66.8705 2.34145 67.1583 3.40105H69.4083C69.1858 1.3735 67.2629 0 64.686 0C61.6119 0 59.6106 1.8052 59.6106 4.57835C59.6106 7.36457 61.5989 9.1567 64.686 9.1567C67.3676 9.1567 69.2382 7.73084 69.4344 5.5463H67.1844C67.0537 6.68439 66.138 7.3515 64.686 7.3515ZM82.0708 0.222676H87.3442V2.22408H82.0708V0.222676ZM19.7 0.224064H17.3977L14.0097 3.6644H12.9894V0.224064H10.9226V8.936H12.9894V5.31261H14.0097L17.3584 8.936H20.0401L15.7179 4.27058L19.7 0.224064ZM25.5334 0.224064H27.6003V7.26165H32.3094V8.936H25.5334V0.224064ZM35.7629 0.224064H33.696V8.936H40.472V7.26165H35.7629V0.224064ZM43.9262 1.89841H49.1325V0.224064H41.8594V8.936H43.9262V5.73115H48.2429V4.05681H43.9262V1.89841ZM23.3112 8.936H21.2444V0.224064H23.3112V8.936ZM52.3775 5.40417L53.9855 1.19209H54.0509L55.6518 5.40417H52.3775ZM52.3112 0.224064L48.9885 8.936H51.0292L51.7533 7.03931H56.2733L56.9941 8.936H59.2571L55.9215 0.224064H52.3112ZM96.3166 4.44921H93.5041V1.89841H96.3166C97.2846 1.89841 97.8863 2.39553 97.8863 3.18035C97.8863 3.96524 97.2846 4.44921 96.3166 4.44921ZM100.032 3.18035C100.032 1.36216 98.6188 0.224064 96.3166 0.224064H91.4243V8.936H93.5041V6.12356H95.5443L97.8863 8.936H100.411L97.7431 5.73223C99.1882 5.3847 100.032 4.47394 100.032 3.18035ZM89.529 6.93404H87.3445V2.22492H89.529V6.93404ZM107.789 0.224064L105.317 4.09602L102.845 0.224064H100.438L104.179 5.95358V8.936H106.246V5.95358L110 0.224064H107.789ZM73.398 1.89841H70.1277V0.224064H78.7481V1.89841H75.4647V8.936H73.398V1.89841ZM87.3442 8.936H82.0708V6.9346H87.3442V8.936ZM79.886 6.93404H82.0705V2.22492H79.886V6.93404Z" fill="#181818"/>
</svg>
