<svg width="384" height="15" viewBox="0 0 384 15" fill="none" xmlns="http://www.w3.org/2000/svg">
<path d="M69.0095 2.97986H77.1887V0.349416H65.7625V14.0361H69.0095V9.00122H75.7912V6.37078H69.0095V2.97986Z" fill="#181818"/>
<path d="M56.186 0.349416H52.939V14.0361H63.5842V11.4057H56.186V0.349416Z" fill="#181818"/>
<path d="M43.3625 0.349416H40.1155V14.0361H50.7607V11.4057H43.3625V0.349416Z" fill="#181818"/>
<path d="M30.9494 0.349416H27.3325L22.0099 5.75429H20.407V0.349416H17.1599V14.0361H20.407V8.34368H22.0099L27.2708 14.0361H31.4838L24.6934 6.70661L30.9494 0.349416Z" fill="#181818"/>
<path d="M33.3745 14.0361H36.6216V0.349419H33.3745V14.0361Z" fill="#181818"/>
<path d="M82.2871 8.48753L84.8133 1.87022H84.9161L87.4311 8.48753H82.2871ZM82.1829 0.349416L76.9629 14.0361H80.1689L81.3064 11.0564H88.4074L89.54 14.0361H93.0951L87.8548 0.349416H82.1829Z" fill="#181818"/>
<path d="M137.22 0.34938H128.936V3.49365H137.22V0.34938Z" fill="#181818"/>
<path d="M151.317 6.98726H146.899V2.97986H151.317C152.838 2.97986 153.784 3.76086 153.784 4.99382C153.784 6.22692 152.838 6.98726 151.317 6.98726ZM157.154 4.99382C157.154 2.1374 154.934 0.349416 151.317 0.349416H143.632V14.0361H146.899V9.6177H150.104L153.784 14.0361H157.75L153.559 9.00292C155.829 8.45693 157.154 7.0261 157.154 4.99382Z" fill="#181818"/>
<path d="M137.219 10.892H140.651V3.49379H137.219V10.892Z" fill="#181818"/>
<path d="M169.34 0.349416L165.456 6.43237L161.572 0.349416H157.791L163.668 9.35066V14.0361H166.915V9.35066L172.813 0.349416H169.34Z" fill="#181818"/>
<path d="M110.172 2.97998H115.31V14.0363H118.557V2.97998H123.715V0.349538H110.172V2.97998Z" fill="#181818"/>
<path d="M101.623 11.5495C98.8487 11.5495 97.2251 9.94654 97.2251 7.19277C97.2251 4.439 98.8487 2.83607 101.623 2.83607C103.781 2.83607 105.055 3.67853 105.507 5.34319H109.042C108.692 2.15786 105.671 3.91006e-05 101.623 3.91006e-05C96.7936 3.91006e-05 93.6494 2.83607 93.6494 7.19277C93.6494 11.57 96.773 14.3855 101.623 14.3855C105.836 14.3855 108.775 12.1454 109.083 8.71344H105.548C105.343 10.5014 103.904 11.5495 101.623 11.5495Z" fill="#181818"/>
<path d="M128.935 14.0363H137.22V10.892H128.935V14.0363Z" fill="#181818"/>
<path d="M125.503 10.892H128.935V3.49379H125.503V10.892Z" fill="#181818"/>
<path d="M9.06284 5.73369L5.67193 5.36372C4.48002 5.24053 3.82248 4.93216 3.82248 4.06903C3.82248 3.08271 4.84999 2.54836 7.08994 2.54836C9.33002 2.54836 10.5014 3.16484 10.6452 4.35674H13.8716C13.8716 1.64417 11.3234 3.91006e-05 7.02834 3.91006e-05C3.14427 3.91006e-05 0.411032 1.64417 0.411032 4.17182C0.411032 6.53509 2.11676 7.91204 5.50754 8.28201L8.7546 8.63131C10.2342 8.7957 11.0563 9.1862 11.0563 10.0904C11.0563 11.3028 9.90543 11.7756 7.31605 11.7756C4.7472 11.7756 3.30866 10.9947 3.30866 9.59723H0C0 12.8031 2.38393 14.3855 7.23379 14.3855C11.9605 14.3855 14.5498 12.8031 14.5498 9.9876C14.5498 7.56274 12.6797 6.12419 9.06284 5.73369Z" fill="#181818"/>
<path d="M240.563 11.7484C241.09 11.7484 241.517 12.1792 241.517 12.71C241.517 13.2407 241.09 13.6716 240.563 13.6716H234.743C232.879 13.6716 231.183 12.9035 229.957 11.6641C228.728 10.4246 227.966 8.71684 227.966 6.83735C227.966 4.95786 228.728 3.24696 229.957 2.01062C231.186 0.771153 232.879 0.00312512 234.743 0.00312512L240.563 0.00312512C241.09 0.00312512 241.517 0.433967 241.517 0.96472C241.517 1.49547 241.09 1.92632 240.563 1.92632L234.743 1.92632C233.403 1.92632 232.186 2.47893 231.304 3.36872C230.421 4.25851 229.873 5.48861 229.873 6.83735C229.873 8.18608 230.421 9.41618 231.307 10.306C232.189 11.1958 233.409 11.7515 234.746 11.7515H240.563V11.7484ZM377.226 1.9232L371.18 1.9232V11.7484L377.226 11.7484C378.564 11.7484 379.783 11.1958 380.666 10.3028C381.548 9.41305 382.099 8.18296 382.099 6.83422C382.099 5.48549 381.551 4.25539 380.669 3.36559C379.78 2.4758 378.564 1.9232 377.226 1.9232ZM370.227 0.00312512L377.223 0.00312512C379.087 0.00312512 380.783 0.771153 382.009 2.01062C383.238 3.25008 384 4.95786 384 6.83735C384 8.71684 383.238 10.4277 382.009 11.6641C380.78 12.9035 379.087 13.6716 377.223 13.6716L370.227 13.6716C369.7 13.6716 369.273 13.2407 369.273 12.71V0.961604C369.273 0.430851 369.7 0.00312512 370.227 0.00312512ZM247.399 10.3028C248.284 11.1958 249.504 11.7484 250.838 11.7484H253.538C254.875 11.7484 256.092 11.1926 256.977 10.3028C257.86 9.41305 258.411 8.18296 258.411 6.83422C258.411 5.48549 257.863 4.25539 256.977 3.36559C256.095 2.4758 254.875 1.92008 253.538 1.92008L250.838 1.92008C249.498 1.92008 248.281 2.47269 247.399 3.36248C246.517 4.25227 245.969 5.48236 245.969 6.8311C245.966 8.18608 246.517 9.41305 247.399 10.3028ZM250.838 13.6716C248.978 13.6716 247.281 12.9004 246.052 11.6609C244.826 10.4215 244.062 8.71371 244.062 6.83422C244.062 4.95474 244.823 3.24384 246.052 2.0075C247.281 0.768037 248.975 0 250.838 0L253.538 0C255.402 0 257.095 0.771159 258.324 2.0075C259.553 3.24696 260.315 4.95786 260.315 6.83422C260.315 8.71371 259.55 10.4215 258.324 11.6609C257.095 12.9004 255.402 13.6684 253.538 13.6684H250.838V13.6716ZM266.16 12.71C266.16 13.2407 265.733 13.6716 265.206 13.6716C264.68 13.6716 264.253 13.2407 264.253 12.71V0.961604C264.253 0.430851 264.68 0 265.206 0C265.683 0 265.996 0.390263 266.324 0.68686L277.274 10.5651V0.961604C277.274 0.430851 277.701 0 278.227 0C278.754 0 279.181 0.430851 279.181 0.961604V12.148V12.71C279.181 12.9285 279.11 13.1314 278.986 13.2907C278.812 13.5217 278.537 13.6716 278.227 13.6716C277.949 13.6716 277.71 13.5529 277.528 13.3781L277.063 12.9441L266.16 3.10647V12.71ZM283.14 1.9232C282.614 1.9232 282.187 1.49236 282.187 0.961604C282.187 0.430851 282.614 0 283.14 0L295.827 0C296.354 0 296.781 0.430851 296.781 0.961604C296.781 1.49236 296.354 1.9232 295.827 1.9232L290.437 1.9232V12.71C290.437 13.2407 290.01 13.6716 289.484 13.6716C288.958 13.6716 288.53 13.2407 288.53 12.71V1.9232L283.14 1.9232ZM300.753 13.6716C300.613 13.6716 300.48 13.6403 300.36 13.5873L300.338 13.5779L300.316 13.5685L300.298 13.5592L300.279 13.5498L300.26 13.5373L300.242 13.5248L300.223 13.5123L300.205 13.4999L300.186 13.4874L300.168 13.4749L300.149 13.4593L300.13 13.4436L300.115 13.428L300.1 13.4124L300.084 13.3968L300.069 13.3812L300.053 13.3656L300.038 13.35L300.022 13.3344L300.007 13.3157L299.994 13.2969L299.982 13.2782L299.969 13.2594L299.957 13.2407L299.945 13.222L299.932 13.2033L299.92 13.1845L299.911 13.1658L299.901 13.1439L299.892 13.1221C299.836 12.9972 299.802 12.8505 299.809 12.71C299.809 8.81362 299.809 4.90166 299.809 1.00531C299.802 0.64627 299.976 0.321577 300.288 0.140497L300.307 0.128006L300.326 0.115515L300.347 0.106149L300.369 0.0967835L300.391 0.0874177L300.412 0.0780518L300.434 0.068686L300.456 0.0593202L300.477 0.0530794L300.499 0.0468387L300.521 0.0405885L300.542 0.0343478L300.564 0.0280975L300.586 0.0249819L300.607 0.0218568L300.632 0.0187317L300.657 0.0156161L300.682 0.012491L300.706 0.012491L300.731 0.012491L300.756 0.012491L311.718 0.012491C312.245 0.012491 312.672 0.443333 312.672 0.974085C312.672 1.50484 312.245 1.93569 311.718 1.93569L301.709 1.93569V5.601L309.356 5.601C309.882 5.601 310.31 6.03185 310.31 6.5626C310.31 7.09336 309.882 7.5242 309.356 7.5242L301.709 7.5242V11.764L311.718 11.764C312.245 11.764 312.672 12.1948 312.672 12.7256C312.672 13.2563 312.26 13.6872 311.734 13.6872L300.753 13.6716ZM318.684 12.71C318.684 13.2407 318.257 13.6716 317.73 13.6716C317.204 13.6716 316.777 13.2407 316.777 12.71V0.961604C316.777 0.905407 316.783 0.861697 316.789 0.824232C316.814 0.643152 316.891 0.468311 317.021 0.321573C317.371 -0.0718081 317.972 -0.106148 318.362 0.246646L329.798 10.5651V0.961604C329.798 0.430851 330.225 0 330.751 0C331.278 0 331.705 0.430851 331.705 0.961604V12.71C331.705 13.2407 331.278 13.6716 330.751 13.6716C330.476 13.6716 330.225 13.5529 330.052 13.3625L318.684 3.10647V12.71ZM335.652 1.9232C335.126 1.9232 334.699 1.49236 334.699 0.961604C334.699 0.430851 335.126 0 335.652 0L348.339 0C348.865 0 349.293 0.430851 349.293 0.961604C349.293 1.49236 348.865 1.9232 348.339 1.9232L342.949 1.9232V12.71C342.949 13.2407 342.522 13.6716 341.996 13.6716C341.469 13.6716 341.042 13.2407 341.042 12.71V1.9232L335.652 1.9232ZM353.268 13.6716H353.237C353.097 13.6716 352.964 13.6403 352.843 13.5873L352.822 13.5779L352.8 13.5685L352.782 13.5592L352.763 13.5498L352.744 13.5373L352.726 13.5248L352.707 13.5123L352.689 13.4999L352.67 13.4874L352.651 13.4749L352.633 13.4593L352.614 13.4436L352.599 13.428L352.583 13.4124L352.568 13.3968L352.552 13.3812L352.537 13.3656L352.521 13.35L352.506 13.3344L352.491 13.3157L352.478 13.2969L352.466 13.2782L352.453 13.2594L352.441 13.2407L352.429 13.222L352.416 13.2033L352.407 13.1845L352.398 13.1658L352.388 13.1439L352.379 13.1221C352.323 13.0003 352.295 12.8661 352.295 12.7256V12.6944V6.5907V6.55948V6.52826V1.00219V0.97097C352.295 0.615053 352.487 0.302842 352.775 0.137372L352.794 0.124891L352.812 0.1124L352.834 0.103034L352.856 0.0936679L352.877 0.0843021L352.899 0.0749362L352.921 0.0655704L352.942 0.0562046L352.964 0.0499543L352.986 0.0437136L353.008 0.0374634L353.029 0.0312226L353.051 0.0249819L353.073 0.0218568L353.094 0.0187317L353.119 0.0156161L353.144 0.012491L353.168 0.00936584L353.193 0.00936584L353.218 0.00936584L353.243 0.00936584L364.205 0.00936584C364.731 0.00936584 365.159 0.440217 365.159 0.97097C365.159 1.50172 364.731 1.93256 364.205 1.93256L354.196 1.93256V5.59788L361.843 5.59788C362.369 5.59788 362.797 6.02873 362.797 6.55948C362.797 7.09023 362.369 7.52107 361.843 7.52107L354.196 7.52107V11.7609L364.205 11.7609C364.731 11.7609 365.159 12.1917 365.159 12.7224C365.159 13.2532 364.731 13.6841 364.205 13.6841L353.268 13.6841V13.6716Z" fill="#181818"/>
<path fill-rule="evenodd" clip-rule="evenodd" d="M210.352 14.6286L196.713 0.989185L197.702 0L211.342 13.6395L210.352 14.6286Z" fill="#181818"/>
<path fill-rule="evenodd" clip-rule="evenodd" d="M196.713 13.6395L210.352 -4.32387e-08L211.342 0.989185L197.702 14.6286L196.713 13.6395Z" fill="#181818"/>
</svg>
