<svg width="150" height="53" viewBox="0 0 150 53" fill="none" xmlns="http://www.w3.org/2000/svg">
<rect width="150" height="53" rx="4" fill="white"/>
<g clip-path="url(#clip0_2615_116)">
<path fill-rule="evenodd" clip-rule="evenodd" d="M121.348 10C120.852 11.0542 120.428 11.9832 119.98 12.9004C117.916 17.1122 115.87 21.3325 113.762 25.5214C113.245 26.5503 113.228 27.4117 113.751 28.4557C116.134 33.2023 118.448 37.9843 120.783 42.7546C120.959 43.1184 121.112 43.4974 121.336 44H29V10H121.348Z" fill="#494949"/>
<path d="M46.2444 36.3632L42.0231 30.4161H41.1994V36.3632H36.5405V17.65H43.8249C45.8326 17.65 47.4456 18.1522 48.6639 19.1565C49.8994 20.161 50.5429 21.7115 50.5943 23.8084C50.5943 27.1211 49.4018 29.1651 47.0165 29.9404L51.9843 36.3632H46.2444ZM41.1994 26.3458H43.902C44.8115 26.3458 45.455 25.9933 45.8326 25.2885C46.21 24.5661 46.21 23.8524 45.8326 23.1476C45.455 22.4252 44.8115 22.064 43.902 22.064H41.1994V26.3458Z" fill="white"/>
<path d="M66.5396 23.3591C66.5225 23.8701 66.3509 24.4252 66.0249 25.0243C65.716 25.6233 65.2613 26.0815 64.6606 26.3986C65.776 26.9801 66.5225 27.7555 66.9 28.7246C67.2775 29.6937 67.389 30.6276 67.2346 31.5262C66.7369 34.7509 64.5748 36.3632 60.7483 36.3632H53.3095V17.65H60.6196C62.4042 17.65 63.8456 18.1698 64.9438 19.2094C66.0591 20.2314 66.5911 21.6146 66.5396 23.3591ZM57.9426 24.9714H60.6196C61.3231 24.9714 61.8207 24.6983 62.1124 24.152C62.4213 23.5882 62.4299 23.0331 62.1381 22.4868C61.8464 21.923 61.3403 21.6411 60.6196 21.6411H57.9426V24.9714ZM57.9426 32.2135H60.6196C61.4947 32.2135 62.1039 31.8963 62.4471 31.262C62.8074 30.61 62.8074 29.9668 62.4471 29.3325C62.0867 28.6981 61.4775 28.381 60.6196 28.381H57.9426V32.2135Z" fill="white"/>
<path d="M68.7007 33.8786C68.7007 33.1562 68.9495 32.5395 69.4472 32.0284C69.9448 31.5175 70.5454 31.262 71.249 31.262C71.9525 31.262 72.5531 31.5175 73.0507 32.0284C73.5655 32.5395 73.8229 33.1562 73.8229 33.8786C73.8229 34.6187 73.5655 35.2531 73.0507 35.7817C72.5531 36.2927 71.9525 36.5481 71.249 36.5481C70.5454 36.5481 69.9448 36.2927 69.4472 35.7817C68.9495 35.2531 68.7007 34.6187 68.7007 33.8786Z" fill="white"/>
<path d="M85.7459 36.3632L81.5245 30.4161H80.7009V36.3632H76.0421V17.65H83.3263C85.334 17.65 86.947 18.1522 88.1654 19.1565C89.4009 20.161 90.0443 21.7115 90.0959 23.8084C90.0959 27.1211 88.9033 29.1651 86.518 29.9404L91.4858 36.3632H85.7459ZM80.7009 26.3458H83.4035C84.313 26.3458 84.9565 25.9933 85.334 25.2885C85.7115 24.5661 85.7115 23.8524 85.334 23.1476C84.9565 22.4252 84.313 22.064 83.4035 22.064H80.7009V26.3458Z" fill="white"/>
<path d="M97.3669 17.65V30.099C97.3669 30.6629 97.5471 31.1474 97.9075 31.5527C98.2678 31.9404 98.6968 32.1782 99.1945 32.2663C99.7092 32.3545 100.224 32.3545 100.739 32.2663C101.254 32.1782 101.691 31.9404 102.051 31.5527C102.412 31.1474 102.592 30.6629 102.592 30.099V17.65H107.251V30.099C107.251 31.0505 107.079 31.9228 106.736 32.7156C106.41 33.4909 105.964 34.1341 105.398 34.6451C104.831 35.1562 104.179 35.5966 103.441 35.9666C102.721 36.3191 101.957 36.5305 101.151 36.601C100.361 36.6715 99.5634 36.6715 98.7569 36.601C97.9504 36.5305 97.1781 36.3191 96.4403 35.9666C95.7196 35.5966 95.0761 35.1562 94.5098 34.6451C93.9607 34.1341 93.5231 33.4909 93.1971 32.7156C92.8711 31.9228 92.708 31.0505 92.708 30.099V17.65H97.3669Z" fill="white"/>
</g>
<defs>
<clipPath id="clip0_2615_116">
<rect width="93" height="34" fill="white" transform="translate(29 10)"/>
</clipPath>
</defs>
</svg>
