<svg width="550" height="356" viewBox="0 0 550 356" fill="none" xmlns="http://www.w3.org/2000/svg">
<path d="M713.793 283.349L586.408 283.349C585.226 283.349 584.269 282.391 584.269 281.21L584.269 110.315C584.269 109.133 583.311 108.176 582.13 108.176L254.415 108.176C253.234 108.176 252.276 109.133 252.276 110.315L252.276 268.784C252.276 269.966 251.318 270.923 250.137 270.923L169.991 270.923C168.81 270.923 167.852 269.966 167.852 268.784L167.852 138.638C167.852 137.457 166.894 136.499 165.713 136.499L10.1369 136.499C8.9555 136.499 7.9978 137.457 7.9978 138.638L7.99779 389.359C7.99779 390.54 8.95548 391.498 10.1369 391.498L79.0994 391.498" stroke="url(#paint0_linear_2367_606)" stroke-width="15.6865"/>
<path d="M387.942 383L519.861 383C521.042 383 522 382.042 522 380.861L522 10.1391C522 8.95769 521.042 8 519.861 8H254.139C252.958 8 252 8.95769 252 10.1391V362.872" stroke="url(#paint1_linear_2367_606)" stroke-width="15.6865"/>
<defs>
<linearGradient id="paint0_linear_2367_606" x1="357.107" y1="312.236" x2="48.6105" y2="312.078" gradientUnits="userSpaceOnUse">
<stop stop-color="#004F00"/>
<stop offset="1" stop-color="#008411"/>
</linearGradient>
<linearGradient id="paint1_linear_2367_606" x1="467.507" y1="847.863" x2="123.075" y2="847.944" gradientUnits="userSpaceOnUse">
<stop stop-color="#043933"/>
<stop offset="0.489583" stop-color="#83AE00"/>
<stop offset="1" stop-color="#B5E916"/>
</linearGradient>
</defs>
</svg>
