<?xml version="1.0" encoding="UTF-8"?> <svg xmlns="http://www.w3.org/2000/svg" width="305" height="188" viewBox="0 0 305 188" fill="none"> <g clip-path="url(#clip0_1531_59)"> <path d="M1 5V153.448C1 155.658 2.79087 157.448 5.00001 157.448H139.94C142.149 157.448 143.94 159.239 143.94 161.448V183C143.94 185.209 145.731 187 147.94 187H248.549C250.758 187 252.549 185.209 252.549 183V147.833C252.549 145.624 254.339 143.833 256.549 143.833H300C302.209 143.833 304 142.042 304 139.833V32.1448C304 29.9357 302.209 28.1448 300 28.1448H242.979C240.769 28.1448 238.979 29.9357 238.979 32.1448V111.396C238.979 113.605 237.188 115.396 234.979 115.396H153.165C150.956 115.396 149.165 113.605 149.165 111.396V32.1448C149.165 29.9357 147.375 28.1448 145.165 28.1448H98.631C96.4219 28.1448 94.631 26.354 94.631 24.1448V5C94.631 2.79086 92.8402 1 90.631 1H5C2.79086 1 1 2.79086 1 5Z" stroke="#0A453E" stroke-width="2"></path> <g clip-path="url(#clip1_1531_59)"> <path d="M1 5V153.448C1 155.658 2.79087 157.448 5.00001 157.448H139.94C142.149 157.448 143.94 159.239 143.94 161.448V183C143.94 185.209 145.731 187 147.94 187H248.549C250.758 187 252.549 185.209 252.549 183V147.833C252.549 145.624 254.339 143.833 256.549 143.833H300C302.209 143.833 304 142.042 304 139.833V32.1448C304 29.9357 302.209 28.1448 300 28.1448H242.979C240.769 28.1448 238.979 29.9357 238.979 32.1448V111.396C238.979 113.605 237.188 115.396 234.979 115.396H153.165C150.956 115.396 149.165 113.605 149.165 111.396V32.1448C149.165 29.9357 147.375 28.1448 145.165 28.1448H98.631C96.4219 28.1448 94.631 26.354 94.631 24.1448V5C94.631 2.79086 92.8402 1 90.631 1H5C2.79086 1 1 2.79086 1 5Z" stroke="#0A453E" stroke-width="2"></path> </g> </g> <defs> <clipPath id="clip0_1531_59"> <rect width="305" height="188" fill="white"></rect> </clipPath> <clipPath id="clip1_1531_59"> <rect width="305" height="188" fill="white"></rect> </clipPath> </defs> </svg> 