<?xml version="1.0" encoding="UTF-8"?> <svg xmlns="http://www.w3.org/2000/svg" width="302" height="198" viewBox="0 0 302 198" fill="none"> <path d="M1.35352 26.2253L1.35352 173.196C1.35352 175.405 3.14438 177.196 5.35352 177.196H48.24C50.4491 177.196 52.24 178.987 52.24 181.196V193C52.24 195.209 54.0309 197 56.24 197H112.724C114.933 197 116.724 195.209 116.724 193L116.724 167.71C116.724 165.5 118.515 163.71 120.724 163.71L296.354 163.71C298.563 163.71 300.354 161.919 300.354 159.71V53.1138C300.354 50.9047 298.563 49.1138 296.354 49.1138H272.272C270.063 49.1138 268.272 47.3229 268.272 45.1138L268.272 26.2254C268.272 24.0163 266.481 22.2254 264.272 22.2254L204.58 22.2254C202.371 22.2254 200.58 20.4346 200.58 18.2254L200.58 4.99999C200.58 2.79085 198.789 1 196.58 1L56.24 1C54.0309 1 52.24 2.79086 52.24 5V18.2253C52.24 20.4345 50.4491 22.2253 48.24 22.2253L5.35352 22.2253C3.14438 22.2253 1.35352 24.0162 1.35352 26.2253Z" stroke="#FF6945" stroke-width="2"></path> </svg> 