<?xml version="1.0" encoding="UTF-8"?> <svg xmlns="http://www.w3.org/2000/svg" width="348" height="140" viewBox="0 0 348 140" fill="none"> <path fill-rule="evenodd" clip-rule="evenodd" d="M26.9995 5.04998C26.9995 3.1299 28.556 1.57336 30.4761 1.57336H268.071C269.991 1.57336 271.548 3.1299 271.548 5.04998L271.548 14.9054C271.548 16.8255 273.104 18.382 275.025 18.382H342.336C344.256 18.382 345.813 19.9385 345.813 21.8586L345.813 110.809C345.813 112.729 344.256 114.286 342.336 114.286H247.445C245.525 114.286 243.969 115.842 243.969 117.762V134.767C243.969 136.687 242.412 138.244 240.492 138.244H109.541C107.621 138.244 106.065 136.687 106.065 134.767V120.462C106.065 118.542 104.508 116.986 102.588 116.986H4.96392C3.04384 116.986 1.4873 115.429 1.4873 113.509V57.4437C1.4873 55.5236 3.04384 53.9671 4.96392 53.9671H23.5229C25.4429 53.9671 26.9995 52.4105 26.9995 50.4904V5.04998Z" fill="#FF6945"></path> <path d="M345.813 110.809H344.352H345.813ZM345.813 21.8586H347.273H345.813ZM271.548 14.9054L270.088 14.9054L271.548 14.9054ZM271.548 5.04998L273.008 5.04998L271.548 5.04998ZM268.071 0.113242H30.4761V3.03349H268.071V0.113242ZM273.008 14.9054L273.008 5.04998L270.088 5.04998L270.088 14.9054L273.008 14.9054ZM342.336 16.9219H275.025V19.8421H342.336V16.9219ZM347.273 110.809L347.273 21.8586L344.352 21.8586L344.352 110.809L347.273 110.809ZM247.445 115.746H342.336V112.826H247.445V115.746ZM245.429 134.767V117.762H242.509V134.767H245.429ZM109.541 139.704H240.492V136.784H109.541V139.704ZM104.605 120.462V134.767H107.525V120.462H104.605ZM4.96392 118.446H102.588V115.526H4.96392V118.446ZM0.0271823 57.4437V113.509H2.94743V57.4437H0.0271823ZM23.5229 52.5069H4.96392V55.4272H23.5229V52.5069ZM25.5393 5.04998V50.4904H28.4596V5.04998H25.5393ZM23.5229 55.4272C26.2493 55.4272 28.4596 53.2169 28.4596 50.4904H25.5393C25.5393 51.6041 24.6365 52.5069 23.5229 52.5069V55.4272ZM2.94743 57.4437C2.94743 56.33 3.85024 55.4272 4.96392 55.4272V52.5069C2.23744 52.5069 0.0271823 54.7172 0.0271823 57.4437H2.94743ZM4.96392 115.526C3.85024 115.526 2.94743 114.623 2.94743 113.509H0.0271823C0.0271823 116.236 2.23744 118.446 4.96392 118.446V115.526ZM107.525 120.462C107.525 117.736 105.315 115.526 102.588 115.526V118.446C103.702 118.446 104.605 119.349 104.605 120.462H107.525ZM109.541 136.784C108.428 136.784 107.525 135.881 107.525 134.767H104.605C104.605 137.494 106.815 139.704 109.541 139.704V136.784ZM242.509 134.767C242.509 135.881 241.606 136.784 240.492 136.784V139.704C243.219 139.704 245.429 137.494 245.429 134.767H242.509ZM247.445 112.826C244.719 112.826 242.509 115.036 242.509 117.762H245.429C245.429 116.649 246.332 115.746 247.445 115.746V112.826ZM344.352 110.809C344.352 111.923 343.45 112.826 342.336 112.826V115.746C345.062 115.746 347.273 113.536 347.273 110.809H344.352ZM342.336 19.8421C343.45 19.8421 344.352 20.7449 344.352 21.8586H347.273C347.273 19.1321 345.062 16.9219 342.336 16.9219V19.8421ZM270.088 14.9054C270.088 17.6319 272.298 19.8421 275.025 19.8421V16.9219C273.911 16.9219 273.008 16.0191 273.008 14.9054L270.088 14.9054ZM30.4761 0.113242C27.7496 0.113242 25.5393 2.32349 25.5393 5.04998H28.4596C28.4596 3.9363 29.3624 3.03349 30.4761 3.03349V0.113242ZM268.071 3.03349C269.185 3.03349 270.088 3.9363 270.088 5.04998L273.008 5.04998C273.008 2.32349 270.798 0.113242 268.071 0.113242V3.03349Z" fill="#FFFAED"></path> </svg> 