<svg width="315" height="184" viewBox="0 0 315 184" fill="none" xmlns="http://www.w3.org/2000/svg">
<path d="M314.061 30.3971C314.451 30.0065 314.451 29.3734 314.061 28.9828L307.697 22.6189C307.306 22.2284 306.673 22.2284 306.282 22.6189C305.892 23.0094 305.892 23.6426 306.282 24.0331L311.939 29.69L306.282 35.3468C305.892 35.7373 305.892 36.3705 306.282 36.761C306.673 37.1515 307.306 37.1515 307.697 36.761L314.061 30.3971ZM209.242 25.69L210.242 25.69L209.242 25.69ZM205.242 29.69V30.69V29.69ZM246.401 25.6899L245.401 25.6899L246.401 25.6899ZM246.401 5.84384L247.401 5.84385L246.401 5.84384ZM209.242 5.84382L208.242 5.84381L209.242 5.84382ZM2.35352 158.335L2.35352 5.84376H0.353517L0.353516 158.335H2.35352ZM5.35352 2.84375L93.7657 2.84375V0.84375L5.35352 0.84375V2.84375ZM96.7657 5.84375V25.69H98.7657V5.84375L96.7657 5.84375ZM245.401 5.84384L245.401 25.6899L247.401 25.6899L247.401 5.84385L245.401 5.84384ZM188.028 103.844L188.028 178.844H190.028L190.028 103.844H188.028ZM55.4525 178.844V166.335H53.4525V178.844H55.4525ZM50.4525 161.335H5.35351V163.335H50.4525V161.335ZM213.242 2.84383L242.401 2.84383V0.843829L213.242 0.843829V2.84383ZM210.242 25.69L210.242 5.84382L208.242 5.84381L208.242 25.69L210.242 25.69ZM101.766 30.69L205.242 30.69V28.69L101.766 28.69V30.69ZM185.028 181.844L58.4525 181.844V183.844L185.028 183.844V181.844ZM250.401 30.69L313.354 30.69V28.69L250.401 28.69V30.69ZM185.028 98.8438L154 98.8438V100.844L185.028 100.844V98.8438ZM208.242 25.69C208.242 27.3468 206.899 28.69 205.242 28.69V30.69C208.003 30.69 210.242 28.4514 210.242 25.69L208.242 25.69ZM55.4525 166.335C55.4525 163.573 53.2139 161.335 50.4525 161.335V163.335C52.1093 163.335 53.4525 164.678 53.4525 166.335H55.4525ZM53.4525 178.844C53.4525 181.605 55.691 183.844 58.4525 183.844V181.844C56.7956 181.844 55.4525 180.501 55.4525 178.844H53.4525ZM188.028 178.844C188.028 180.501 186.684 181.844 185.028 181.844V183.844C187.789 183.844 190.028 181.605 190.028 178.844H188.028ZM190.028 103.844C190.028 101.082 187.789 98.8438 185.028 98.8438V100.844C186.684 100.844 188.028 102.187 188.028 103.844H190.028ZM245.401 25.6899C245.401 28.4514 247.639 30.69 250.401 30.69V28.69C248.744 28.69 247.401 27.3468 247.401 25.6899L245.401 25.6899ZM247.401 5.84385C247.401 3.08242 245.162 0.843829 242.401 0.843829V2.84383C244.058 2.84383 245.401 4.18698 245.401 5.84384L247.401 5.84385ZM96.7657 25.69C96.7657 28.4514 99.0042 30.69 101.766 30.69V28.69C100.109 28.69 98.7657 27.3468 98.7657 25.69H96.7657ZM93.7657 2.84375C95.4225 2.84375 96.7657 4.1869 96.7657 5.84375L98.7657 5.84375C98.7657 3.08232 96.5271 0.84375 93.7657 0.84375V2.84375ZM2.35352 5.84376C2.35352 4.1869 3.69666 2.84375 5.35352 2.84375V0.84375C2.59209 0.84375 0.353517 3.08233 0.353517 5.84376H2.35352ZM213.242 0.843829C210.481 0.843829 208.242 3.0824 208.242 5.84381L210.242 5.84382C210.242 4.18697 211.585 2.84383 213.242 2.84383V0.843829ZM0.353516 158.335C0.353516 161.096 2.59209 163.335 5.35351 163.335V161.335C3.69666 161.335 2.35352 159.992 2.35352 158.335H0.353516Z" fill="#FFFAEC"/>
</svg>
