<svg width="314" height="200" viewBox="0 0 314 200" fill="none" xmlns="http://www.w3.org/2000/svg">
<path d="M119.702 7.84378L119.702 6.84378L119.702 7.84378ZM205.851 8.55157C206.241 8.16105 206.241 7.52789 205.851 7.13736L199.487 0.773349C199.096 0.382822 198.463 0.382816 198.073 0.773338C197.682 1.16386 197.682 1.79702 198.073 2.18755L203.729 7.84445L198.072 13.5013C197.682 13.8918 197.682 14.5249 198.072 14.9155C198.463 15.306 199.096 15.306 199.487 14.9155L205.851 8.55157ZM5.35352 61.3554H111.702V59.3554H5.35352V61.3554ZM116.702 56.3554V11.8438H114.702V56.3554H116.702ZM119.702 8.84378L205.144 8.84446L205.144 6.84446L119.702 6.84378L119.702 8.84378ZM311.354 47.2318V134.553H313.354V47.2318H311.354ZM308.354 137.553H284.824V139.553H308.354V137.553ZM279.824 142.553V194.844H281.824V142.553H279.824ZM74.4352 155.331H5.35351V157.331H74.4352V155.331ZM2.35352 152.331V64.3554H0.353516V152.331H2.35352ZM276.824 197.844H82.4352V199.844H276.824V197.844ZM79.4352 194.844V160.331H77.4352V194.844H79.4352ZM308.354 42.2318H182V44.2318H308.354V42.2318ZM177 47.2318V138.553H179V47.2318H177ZM82.4352 197.844C80.7784 197.844 79.4352 196.501 79.4352 194.844H77.4352C77.4352 197.605 79.6738 199.844 82.4352 199.844V197.844ZM74.4352 157.331C76.0921 157.331 77.4352 158.674 77.4352 160.331H79.4352C79.4352 157.57 77.1967 155.331 74.4352 155.331V157.331ZM279.824 194.844C279.824 196.501 278.481 197.844 276.824 197.844V199.844C279.586 199.844 281.824 197.605 281.824 194.844H279.824ZM284.824 137.553C282.063 137.553 279.824 139.792 279.824 142.553H281.824C281.824 140.897 283.168 139.553 284.824 139.553V137.553ZM311.354 134.553C311.354 136.21 310.01 137.553 308.354 137.553V139.553C311.115 139.553 313.354 137.315 313.354 134.553H311.354ZM116.702 11.8438C116.702 10.1869 118.046 8.84377 119.702 8.84378L119.702 6.84378C116.941 6.84376 114.702 9.08234 114.702 11.8438H116.702ZM111.702 61.3554C114.464 61.3554 116.702 59.1169 116.702 56.3554H114.702C114.702 58.0123 113.359 59.3554 111.702 59.3554V61.3554ZM5.35352 59.3554C2.59209 59.3554 0.353516 61.594 0.353516 64.3554H2.35352C2.35352 62.6986 3.69666 61.3554 5.35352 61.3554V59.3554ZM313.354 47.2318C313.354 44.4704 311.115 42.2318 308.354 42.2318V44.2318C310.01 44.2318 311.354 45.5749 311.354 47.2318H313.354ZM182 42.2318C179.239 42.2318 177 44.4704 177 47.2318H179C179 45.5749 180.343 44.2318 182 44.2318V42.2318ZM5.35351 155.331C3.69666 155.331 2.35352 153.988 2.35352 152.331H0.353516C0.353516 155.093 2.59209 157.331 5.35351 157.331V155.331Z" fill="white"/>
</svg>
