<svg width="314" height="183" viewBox="0 0 314 183" fill="none" xmlns="http://www.w3.org/2000/svg">
<path d="M278.984 5.00009L279.984 5.0001V5.00009H278.984ZM278.984 24.8462L277.984 24.8462V24.8462H278.984ZM192.426 147.524V148.524V147.524ZM313.061 29.5533C313.451 29.1628 313.451 28.5296 313.061 28.1391L306.697 21.7751C306.306 21.3846 305.673 21.3846 305.282 21.7751C304.892 22.1657 304.892 22.7988 305.282 23.1893L310.939 28.8462L305.282 34.5031C304.892 34.8936 304.892 35.5267 305.282 35.9173C305.673 36.3078 306.306 36.3078 306.697 35.9173L313.061 29.5533ZM2.35352 54.8139L2.35352 5H0.353516L0.353516 54.8139H2.35352ZM5.35352 2L127.429 2V0L5.35352 0V2ZM130.429 5V65.3425H132.429V5H130.429ZM277.984 5.00009L277.984 24.8462L279.984 24.8462L279.984 5.0001L277.984 5.00009ZM236 146.524H192.426V148.524H236V146.524ZM187.426 151.524V178H189.426V151.524H187.426ZM55.2823 178L55.2823 62.8139H53.2823L53.2823 178H55.2823ZM50.2823 57.8139L5.35352 57.8139V59.8139L50.2823 59.8139V57.8139ZM212.576 2.00008L274.984 2.00008V7.93338e-05L212.576 7.93338e-05V2.00008ZM209.576 65.3425V5.00008L207.576 5.00008V65.3425H209.576ZM135.429 70.3425L204.576 70.3425V68.3425L135.429 68.3425V70.3425ZM184.426 181L58.2823 181V183L184.426 183V181ZM282.984 29.8462L312.354 29.8462V27.8462L282.984 27.8462V29.8462ZM239 151.524V182H241V151.524H239ZM207.576 65.3425C207.576 66.9993 206.233 68.3425 204.576 68.3425V70.3425C207.337 70.3425 209.576 68.1039 209.576 65.3425H207.576ZM212.576 7.93338e-05C209.814 7.93338e-05 207.576 2.23866 207.576 5.00008L209.576 5.00008C209.576 3.34323 210.919 2.00008 212.576 2.00008V7.93338e-05ZM53.2823 178C53.2823 180.761 55.5208 183 58.2823 183V181C56.6254 181 55.2823 179.657 55.2823 178H53.2823ZM187.426 178C187.426 179.657 186.083 181 184.426 181V183C187.188 183 189.426 180.761 189.426 178H187.426ZM192.426 146.524C189.665 146.524 187.426 148.762 187.426 151.524H189.426C189.426 149.867 190.769 148.524 192.426 148.524V146.524ZM236 148.524C237.657 148.524 239 149.867 239 151.524H241C241 148.762 238.761 146.524 236 146.524V148.524ZM277.984 24.8462C277.984 27.6076 280.223 29.8462 282.984 29.8462V27.8462C281.327 27.8462 279.984 26.5031 279.984 24.8462H277.984ZM279.984 5.00009C279.984 2.23866 277.746 7.93338e-05 274.984 7.93338e-05V2.00008C276.641 2.00008 277.984 3.34324 277.984 5.00009H279.984ZM130.429 65.3425C130.429 68.1039 132.667 70.3425 135.429 70.3425V68.3425C133.772 68.3425 132.429 66.9993 132.429 65.3425H130.429ZM127.429 2C129.086 2 130.429 3.34315 130.429 5H132.429C132.429 2.23858 130.19 0 127.429 0V2ZM2.35352 5C2.35352 3.34315 3.69666 2 5.35352 2V0C2.59209 0 0.353516 2.23857 0.353516 5H2.35352ZM55.2823 62.8139C55.2823 60.0525 53.0437 57.8139 50.2823 57.8139V59.8139C51.9391 59.8139 53.2823 61.1571 53.2823 62.8139H55.2823ZM0.353516 54.8139C0.353516 57.5753 2.5921 59.8139 5.35352 59.8139V57.8139C3.69666 57.8139 2.35352 56.4708 2.35352 54.8139H0.353516Z" fill="white"/>
</svg>
