<svg width="608" height="375" viewBox="0 0 608 375" fill="none" xmlns="http://www.w3.org/2000/svg">
<path d="M395.386 51.0601L395.386 51.9829H411.386V51.0601L395.386 51.0601Z" fill="url(#paint0_linear_6001_18)"/>
<path d="M403.847 43.5215L402.924 43.5215L402.924 59.5215H403.847L403.847 43.5215Z" fill="url(#paint1_linear_6001_18)"/>
<path d="M398.055 45.5386L397.402 46.1911L408.716 57.5048L409.369 56.8523L398.055 45.5386Z" fill="url(#paint2_linear_6001_18)"/>
<path d="M409.369 46.191L408.716 45.5385L397.403 56.8522L398.055 57.5047L409.369 46.191Z" fill="url(#paint3_linear_6001_18)"/>
<path d="M400.934 43.892L400.073 44.2245L405.838 59.1498L406.699 58.8173L400.934 43.892Z" fill="url(#paint4_linear_6001_18)"/>
<path d="M411.015 49.0689L410.683 48.2081L395.758 53.9733L396.09 54.8341L411.015 49.0689Z" fill="url(#paint5_linear_6001_18)"/>
<path d="M396.392 47.6091L395.989 48.4391L410.379 55.433L410.783 54.603L396.392 47.6091Z" fill="url(#paint6_linear_6001_18)"/>
<path d="M407.298 44.527L406.468 44.1237L399.474 58.5141L400.304 58.9175L407.298 44.527Z" fill="url(#paint7_linear_6001_18)"/>
<path d="M311.386 113.059L311.386 113.982H327.386V113.059L311.386 113.059Z" fill="url(#paint8_linear_6001_18)"/>
<path d="M319.847 105.521L318.924 105.521L318.924 121.521H319.847L319.847 105.521Z" fill="url(#paint9_linear_6001_18)"/>
<path d="M314.055 107.538L313.402 108.19L324.716 119.504L325.369 118.851L314.055 107.538Z" fill="url(#paint10_linear_6001_18)"/>
<path d="M325.369 108.19L324.716 107.537L313.403 118.851L314.055 119.504L325.369 108.19Z" fill="url(#paint11_linear_6001_18)"/>
<path d="M316.934 105.891L316.073 106.224L321.838 121.149L322.699 120.816L316.934 105.891Z" fill="url(#paint12_linear_6001_18)"/>
<path d="M327.015 111.068L326.683 110.207L311.758 115.972L312.09 116.833L327.015 111.068Z" fill="url(#paint13_linear_6001_18)"/>
<path d="M312.392 109.608L311.989 110.438L326.379 117.432L326.783 116.602L312.392 109.608Z" fill="url(#paint14_linear_6001_18)"/>
<path d="M323.298 106.526L322.468 106.123L315.474 120.513L316.304 120.917L323.298 106.526Z" fill="url(#paint15_linear_6001_18)"/>
<path d="M0.385742 247.06L0.385742 247.983H16.3857V247.06L0.385742 247.06Z" fill="url(#paint16_linear_6001_18)"/>
<path d="M8.84717 239.521L7.92434 239.521L7.92434 255.521H8.84717L8.84717 239.521Z" fill="url(#paint17_linear_6001_18)"/>
<path d="M3.05499 241.539L2.40245 242.191L13.7162 253.505L14.3687 252.852L3.05499 241.539Z" fill="url(#paint18_linear_6001_18)"/>
<path d="M14.3688 242.191L13.7162 241.538L2.40253 252.852L3.05507 253.505L14.3688 242.191Z" fill="url(#paint19_linear_6001_18)"/>
<path d="M5.93411 239.892L5.07327 240.225L10.8384 255.15L11.6993 254.817L5.93411 239.892Z" fill="url(#paint20_linear_6001_18)"/>
<path d="M16.0154 245.069L15.6829 244.208L0.757682 249.973L1.0902 250.834L16.0154 245.069Z" fill="url(#paint21_linear_6001_18)"/>
<path d="M1.39232 243.609L0.988936 244.439L15.3794 251.433L15.7828 250.603L1.39232 243.609Z" fill="url(#paint22_linear_6001_18)"/>
<path d="M12.2983 240.527L11.4683 240.124L4.47445 254.514L5.30445 254.918L12.2983 240.527Z" fill="url(#paint23_linear_6001_18)"/>
<path d="M431.386 247.06L431.386 247.983H447.386V247.06L431.386 247.06Z" fill="url(#paint24_linear_6001_18)"/>
<path d="M439.847 239.521L438.924 239.521L438.924 255.521H439.847L439.847 239.521Z" fill="url(#paint25_linear_6001_18)"/>
<path d="M434.055 241.539L433.402 242.191L444.716 253.505L445.369 252.852L434.055 241.539Z" fill="url(#paint26_linear_6001_18)"/>
<path d="M445.369 242.191L444.716 241.538L433.403 252.852L434.055 253.505L445.369 242.191Z" fill="url(#paint27_linear_6001_18)"/>
<path d="M436.934 239.892L436.073 240.225L441.838 255.15L442.699 254.817L436.934 239.892Z" fill="url(#paint28_linear_6001_18)"/>
<path d="M447.015 245.069L446.683 244.208L431.758 249.973L432.09 250.834L447.015 245.069Z" fill="url(#paint29_linear_6001_18)"/>
<path d="M432.392 243.609L431.989 244.439L446.379 251.433L446.783 250.603L432.392 243.609Z" fill="url(#paint30_linear_6001_18)"/>
<path d="M443.298 240.527L442.468 240.124L435.474 254.514L436.304 254.918L443.298 240.527Z" fill="url(#paint31_linear_6001_18)"/>
<path d="M217.386 274.06L217.386 274.983H233.386V274.06L217.386 274.06Z" fill="url(#paint32_linear_6001_18)"/>
<path d="M225.847 266.521L224.924 266.521L224.924 282.521H225.847L225.847 266.521Z" fill="url(#paint33_linear_6001_18)"/>
<path d="M220.055 268.539L219.402 269.191L230.716 280.505L231.369 279.852L220.055 268.539Z" fill="url(#paint34_linear_6001_18)"/>
<path d="M231.369 269.191L230.716 268.538L219.403 279.852L220.055 280.505L231.369 269.191Z" fill="url(#paint35_linear_6001_18)"/>
<path d="M222.934 266.892L222.073 267.225L227.838 282.15L228.699 281.817L222.934 266.892Z" fill="url(#paint36_linear_6001_18)"/>
<path d="M233.015 272.069L232.683 271.208L217.758 276.973L218.09 277.834L233.015 272.069Z" fill="url(#paint37_linear_6001_18)"/>
<path d="M218.392 270.609L217.989 271.439L232.379 278.433L232.783 277.603L218.392 270.609Z" fill="url(#paint38_linear_6001_18)"/>
<path d="M229.298 267.527L228.468 267.124L221.474 281.514L222.304 281.918L229.298 267.527Z" fill="url(#paint39_linear_6001_18)"/>
<path d="M351.386 366.06L351.386 366.983H367.386V366.06L351.386 366.06Z" fill="url(#paint40_linear_6001_18)"/>
<path d="M359.847 358.521L358.924 358.521L358.924 374.521H359.847L359.847 358.521Z" fill="url(#paint41_linear_6001_18)"/>
<path d="M354.055 360.539L353.402 361.191L364.716 372.505L365.369 371.852L354.055 360.539Z" fill="url(#paint42_linear_6001_18)"/>
<path d="M365.369 361.191L364.716 360.538L353.403 371.852L354.055 372.505L365.369 361.191Z" fill="url(#paint43_linear_6001_18)"/>
<path d="M356.934 358.892L356.073 359.225L361.838 374.15L362.699 373.817L356.934 358.892Z" fill="url(#paint44_linear_6001_18)"/>
<path d="M367.015 364.069L366.683 363.208L351.758 368.973L352.09 369.834L367.015 364.069Z" fill="url(#paint45_linear_6001_18)"/>
<path d="M352.392 362.609L351.989 363.439L366.379 370.433L366.783 369.603L352.392 362.609Z" fill="url(#paint46_linear_6001_18)"/>
<path d="M363.298 359.527L362.468 359.124L355.474 373.514L356.304 373.918L363.298 359.527Z" fill="url(#paint47_linear_6001_18)"/>
<path d="M591.386 311.06L591.386 311.983H607.386V311.06L591.386 311.06Z" fill="url(#paint48_linear_6001_18)"/>
<path d="M599.847 303.521L598.924 303.521L598.924 319.521H599.847L599.847 303.521Z" fill="url(#paint49_linear_6001_18)"/>
<path d="M594.055 305.539L593.402 306.191L604.716 317.505L605.369 316.852L594.055 305.539Z" fill="url(#paint50_linear_6001_18)"/>
<path d="M605.369 306.191L604.716 305.538L593.403 316.852L594.055 317.505L605.369 306.191Z" fill="url(#paint51_linear_6001_18)"/>
<path d="M596.934 303.892L596.073 304.225L601.838 319.15L602.699 318.817L596.934 303.892Z" fill="url(#paint52_linear_6001_18)"/>
<path d="M607.015 309.069L606.683 308.208L591.758 313.973L592.09 314.834L607.015 309.069Z" fill="url(#paint53_linear_6001_18)"/>
<path d="M592.392 307.609L591.989 308.439L606.379 315.433L606.783 314.603L592.392 307.609Z" fill="url(#paint54_linear_6001_18)"/>
<path d="M603.298 304.527L602.468 304.124L595.474 318.514L596.304 318.918L603.298 304.527Z" fill="url(#paint55_linear_6001_18)"/>
<path d="M135.386 143.06L135.386 143.983H151.386V143.06L135.386 143.06Z" fill="url(#paint56_linear_6001_18)"/>
<path d="M143.847 135.521L142.924 135.521L142.924 151.521H143.847L143.847 135.521Z" fill="url(#paint57_linear_6001_18)"/>
<path d="M138.055 137.539L137.402 138.191L148.716 149.505L149.369 148.852L138.055 137.539Z" fill="url(#paint58_linear_6001_18)"/>
<path d="M149.369 138.191L148.716 137.538L137.403 148.852L138.055 149.505L149.369 138.191Z" fill="url(#paint59_linear_6001_18)"/>
<path d="M140.934 135.892L140.073 136.225L145.838 151.15L146.699 150.817L140.934 135.892Z" fill="url(#paint60_linear_6001_18)"/>
<path d="M151.015 141.069L150.683 140.208L135.758 145.973L136.09 146.834L151.015 141.069Z" fill="url(#paint61_linear_6001_18)"/>
<path d="M136.392 139.609L135.989 140.439L150.379 147.433L150.783 146.603L136.392 139.609Z" fill="url(#paint62_linear_6001_18)"/>
<path d="M147.298 136.527L146.468 136.124L139.474 150.514L140.304 150.918L147.298 136.527Z" fill="url(#paint63_linear_6001_18)"/>
<path d="M288.386 8.06006L288.386 8.98289H304.386V8.06006L288.386 8.06006Z" fill="url(#paint64_linear_6001_18)"/>
<path d="M296.847 0.521484L295.924 0.521484L295.924 16.5215H296.847L296.847 0.521484Z" fill="url(#paint65_linear_6001_18)"/>
<path d="M291.055 2.53857L290.402 3.1911L301.716 14.5048L302.369 13.8523L291.055 2.53857Z" fill="url(#paint66_linear_6001_18)"/>
<path d="M302.369 3.19101L301.716 2.53847L290.403 13.8522L291.055 14.5047L302.369 3.19101Z" fill="url(#paint67_linear_6001_18)"/>
<path d="M293.934 0.89203L293.073 1.22455L298.838 16.1498L299.699 15.8173L293.934 0.89203Z" fill="url(#paint68_linear_6001_18)"/>
<path d="M304.015 6.06894L303.683 5.2081L288.758 10.9733L289.09 11.8341L304.015 6.06894Z" fill="url(#paint69_linear_6001_18)"/>
<path d="M289.392 4.60913L288.989 5.43912L303.379 12.433L303.783 11.603L289.392 4.60913Z" fill="url(#paint70_linear_6001_18)"/>
<path d="M300.298 1.52704L299.468 1.12366L292.474 15.5141L293.304 15.9175L300.298 1.52704Z" fill="url(#paint71_linear_6001_18)"/>
<defs>
<linearGradient id="paint0_linear_6001_18" x1="393.886" y1="41.0217" x2="387.642" y2="45.2526" gradientUnits="userSpaceOnUse">
<stop stop-color="white"/>
<stop offset="1" stop-color="#083800"/>
</linearGradient>
<linearGradient id="paint1_linear_6001_18" x1="393.886" y1="41.0217" x2="387.642" y2="45.2526" gradientUnits="userSpaceOnUse">
<stop stop-color="white"/>
<stop offset="1" stop-color="#083800"/>
</linearGradient>
<linearGradient id="paint2_linear_6001_18" x1="393.886" y1="41.0217" x2="387.642" y2="45.2526" gradientUnits="userSpaceOnUse">
<stop stop-color="white"/>
<stop offset="1" stop-color="#083800"/>
</linearGradient>
<linearGradient id="paint3_linear_6001_18" x1="393.886" y1="41.0217" x2="387.642" y2="45.2526" gradientUnits="userSpaceOnUse">
<stop stop-color="white"/>
<stop offset="1" stop-color="#083800"/>
</linearGradient>
<linearGradient id="paint4_linear_6001_18" x1="393.886" y1="41.0217" x2="387.642" y2="45.2526" gradientUnits="userSpaceOnUse">
<stop stop-color="white"/>
<stop offset="1" stop-color="#083800"/>
</linearGradient>
<linearGradient id="paint5_linear_6001_18" x1="393.886" y1="41.0217" x2="387.642" y2="45.2526" gradientUnits="userSpaceOnUse">
<stop stop-color="white"/>
<stop offset="1" stop-color="#083800"/>
</linearGradient>
<linearGradient id="paint6_linear_6001_18" x1="393.886" y1="41.0217" x2="387.642" y2="45.2526" gradientUnits="userSpaceOnUse">
<stop stop-color="white"/>
<stop offset="1" stop-color="#083800"/>
</linearGradient>
<linearGradient id="paint7_linear_6001_18" x1="393.886" y1="41.0217" x2="387.642" y2="45.2526" gradientUnits="userSpaceOnUse">
<stop stop-color="white"/>
<stop offset="1" stop-color="#083800"/>
</linearGradient>
<linearGradient id="paint8_linear_6001_18" x1="309.886" y1="103.021" x2="303.642" y2="107.252" gradientUnits="userSpaceOnUse">
<stop stop-color="white"/>
<stop offset="1" stop-color="#083800"/>
</linearGradient>
<linearGradient id="paint9_linear_6001_18" x1="309.886" y1="103.021" x2="303.642" y2="107.252" gradientUnits="userSpaceOnUse">
<stop stop-color="white"/>
<stop offset="1" stop-color="#083800"/>
</linearGradient>
<linearGradient id="paint10_linear_6001_18" x1="309.886" y1="103.021" x2="303.642" y2="107.252" gradientUnits="userSpaceOnUse">
<stop stop-color="white"/>
<stop offset="1" stop-color="#083800"/>
</linearGradient>
<linearGradient id="paint11_linear_6001_18" x1="309.886" y1="103.021" x2="303.642" y2="107.252" gradientUnits="userSpaceOnUse">
<stop stop-color="white"/>
<stop offset="1" stop-color="#083800"/>
</linearGradient>
<linearGradient id="paint12_linear_6001_18" x1="309.886" y1="103.021" x2="303.642" y2="107.252" gradientUnits="userSpaceOnUse">
<stop stop-color="white"/>
<stop offset="1" stop-color="#083800"/>
</linearGradient>
<linearGradient id="paint13_linear_6001_18" x1="309.886" y1="103.021" x2="303.642" y2="107.252" gradientUnits="userSpaceOnUse">
<stop stop-color="white"/>
<stop offset="1" stop-color="#083800"/>
</linearGradient>
<linearGradient id="paint14_linear_6001_18" x1="309.886" y1="103.021" x2="303.642" y2="107.252" gradientUnits="userSpaceOnUse">
<stop stop-color="white"/>
<stop offset="1" stop-color="#083800"/>
</linearGradient>
<linearGradient id="paint15_linear_6001_18" x1="309.886" y1="103.021" x2="303.642" y2="107.252" gradientUnits="userSpaceOnUse">
<stop stop-color="white"/>
<stop offset="1" stop-color="#083800"/>
</linearGradient>
<linearGradient id="paint16_linear_6001_18" x1="-1.11426" y1="237.022" x2="-7.35756" y2="241.253" gradientUnits="userSpaceOnUse">
<stop stop-color="white"/>
<stop offset="1" stop-color="#083800"/>
</linearGradient>
<linearGradient id="paint17_linear_6001_18" x1="-1.11426" y1="237.022" x2="-7.35756" y2="241.253" gradientUnits="userSpaceOnUse">
<stop stop-color="white"/>
<stop offset="1" stop-color="#083800"/>
</linearGradient>
<linearGradient id="paint18_linear_6001_18" x1="-1.11426" y1="237.022" x2="-7.35756" y2="241.253" gradientUnits="userSpaceOnUse">
<stop stop-color="white"/>
<stop offset="1" stop-color="#083800"/>
</linearGradient>
<linearGradient id="paint19_linear_6001_18" x1="-1.11426" y1="237.022" x2="-7.35756" y2="241.253" gradientUnits="userSpaceOnUse">
<stop stop-color="white"/>
<stop offset="1" stop-color="#083800"/>
</linearGradient>
<linearGradient id="paint20_linear_6001_18" x1="-1.11426" y1="237.022" x2="-7.35756" y2="241.253" gradientUnits="userSpaceOnUse">
<stop stop-color="white"/>
<stop offset="1" stop-color="#083800"/>
</linearGradient>
<linearGradient id="paint21_linear_6001_18" x1="-1.11426" y1="237.022" x2="-7.35756" y2="241.253" gradientUnits="userSpaceOnUse">
<stop stop-color="white"/>
<stop offset="1" stop-color="#083800"/>
</linearGradient>
<linearGradient id="paint22_linear_6001_18" x1="-1.11426" y1="237.022" x2="-7.35756" y2="241.253" gradientUnits="userSpaceOnUse">
<stop stop-color="white"/>
<stop offset="1" stop-color="#083800"/>
</linearGradient>
<linearGradient id="paint23_linear_6001_18" x1="-1.11426" y1="237.022" x2="-7.35756" y2="241.253" gradientUnits="userSpaceOnUse">
<stop stop-color="white"/>
<stop offset="1" stop-color="#083800"/>
</linearGradient>
<linearGradient id="paint24_linear_6001_18" x1="429.886" y1="237.022" x2="423.642" y2="241.253" gradientUnits="userSpaceOnUse">
<stop stop-color="white"/>
<stop offset="1" stop-color="#083800"/>
</linearGradient>
<linearGradient id="paint25_linear_6001_18" x1="429.886" y1="237.022" x2="423.642" y2="241.253" gradientUnits="userSpaceOnUse">
<stop stop-color="white"/>
<stop offset="1" stop-color="#083800"/>
</linearGradient>
<linearGradient id="paint26_linear_6001_18" x1="429.886" y1="237.022" x2="423.642" y2="241.253" gradientUnits="userSpaceOnUse">
<stop stop-color="white"/>
<stop offset="1" stop-color="#083800"/>
</linearGradient>
<linearGradient id="paint27_linear_6001_18" x1="429.886" y1="237.022" x2="423.642" y2="241.253" gradientUnits="userSpaceOnUse">
<stop stop-color="white"/>
<stop offset="1" stop-color="#083800"/>
</linearGradient>
<linearGradient id="paint28_linear_6001_18" x1="429.886" y1="237.022" x2="423.642" y2="241.253" gradientUnits="userSpaceOnUse">
<stop stop-color="white"/>
<stop offset="1" stop-color="#083800"/>
</linearGradient>
<linearGradient id="paint29_linear_6001_18" x1="429.886" y1="237.022" x2="423.642" y2="241.253" gradientUnits="userSpaceOnUse">
<stop stop-color="white"/>
<stop offset="1" stop-color="#083800"/>
</linearGradient>
<linearGradient id="paint30_linear_6001_18" x1="429.886" y1="237.022" x2="423.642" y2="241.253" gradientUnits="userSpaceOnUse">
<stop stop-color="white"/>
<stop offset="1" stop-color="#083800"/>
</linearGradient>
<linearGradient id="paint31_linear_6001_18" x1="429.886" y1="237.022" x2="423.642" y2="241.253" gradientUnits="userSpaceOnUse">
<stop stop-color="white"/>
<stop offset="1" stop-color="#083800"/>
</linearGradient>
<linearGradient id="paint32_linear_6001_18" x1="215.886" y1="264.022" x2="209.642" y2="268.253" gradientUnits="userSpaceOnUse">
<stop stop-color="white"/>
<stop offset="1" stop-color="#083800"/>
</linearGradient>
<linearGradient id="paint33_linear_6001_18" x1="215.886" y1="264.022" x2="209.642" y2="268.253" gradientUnits="userSpaceOnUse">
<stop stop-color="white"/>
<stop offset="1" stop-color="#083800"/>
</linearGradient>
<linearGradient id="paint34_linear_6001_18" x1="215.886" y1="264.022" x2="209.642" y2="268.253" gradientUnits="userSpaceOnUse">
<stop stop-color="white"/>
<stop offset="1" stop-color="#083800"/>
</linearGradient>
<linearGradient id="paint35_linear_6001_18" x1="215.886" y1="264.022" x2="209.642" y2="268.253" gradientUnits="userSpaceOnUse">
<stop stop-color="white"/>
<stop offset="1" stop-color="#083800"/>
</linearGradient>
<linearGradient id="paint36_linear_6001_18" x1="215.886" y1="264.022" x2="209.642" y2="268.253" gradientUnits="userSpaceOnUse">
<stop stop-color="white"/>
<stop offset="1" stop-color="#083800"/>
</linearGradient>
<linearGradient id="paint37_linear_6001_18" x1="215.886" y1="264.022" x2="209.642" y2="268.253" gradientUnits="userSpaceOnUse">
<stop stop-color="white"/>
<stop offset="1" stop-color="#083800"/>
</linearGradient>
<linearGradient id="paint38_linear_6001_18" x1="215.886" y1="264.022" x2="209.642" y2="268.253" gradientUnits="userSpaceOnUse">
<stop stop-color="white"/>
<stop offset="1" stop-color="#083800"/>
</linearGradient>
<linearGradient id="paint39_linear_6001_18" x1="215.886" y1="264.022" x2="209.642" y2="268.253" gradientUnits="userSpaceOnUse">
<stop stop-color="white"/>
<stop offset="1" stop-color="#083800"/>
</linearGradient>
<linearGradient id="paint40_linear_6001_18" x1="349.886" y1="356.022" x2="343.642" y2="360.253" gradientUnits="userSpaceOnUse">
<stop stop-color="white"/>
<stop offset="1" stop-color="#083800"/>
</linearGradient>
<linearGradient id="paint41_linear_6001_18" x1="349.886" y1="356.022" x2="343.642" y2="360.253" gradientUnits="userSpaceOnUse">
<stop stop-color="white"/>
<stop offset="1" stop-color="#083800"/>
</linearGradient>
<linearGradient id="paint42_linear_6001_18" x1="349.886" y1="356.022" x2="343.642" y2="360.253" gradientUnits="userSpaceOnUse">
<stop stop-color="white"/>
<stop offset="1" stop-color="#083800"/>
</linearGradient>
<linearGradient id="paint43_linear_6001_18" x1="349.886" y1="356.022" x2="343.642" y2="360.253" gradientUnits="userSpaceOnUse">
<stop stop-color="white"/>
<stop offset="1" stop-color="#083800"/>
</linearGradient>
<linearGradient id="paint44_linear_6001_18" x1="349.886" y1="356.022" x2="343.642" y2="360.253" gradientUnits="userSpaceOnUse">
<stop stop-color="white"/>
<stop offset="1" stop-color="#083800"/>
</linearGradient>
<linearGradient id="paint45_linear_6001_18" x1="349.886" y1="356.022" x2="343.642" y2="360.253" gradientUnits="userSpaceOnUse">
<stop stop-color="white"/>
<stop offset="1" stop-color="#083800"/>
</linearGradient>
<linearGradient id="paint46_linear_6001_18" x1="349.886" y1="356.022" x2="343.642" y2="360.253" gradientUnits="userSpaceOnUse">
<stop stop-color="white"/>
<stop offset="1" stop-color="#083800"/>
</linearGradient>
<linearGradient id="paint47_linear_6001_18" x1="349.886" y1="356.022" x2="343.642" y2="360.253" gradientUnits="userSpaceOnUse">
<stop stop-color="white"/>
<stop offset="1" stop-color="#083800"/>
</linearGradient>
<linearGradient id="paint48_linear_6001_18" x1="589.886" y1="301.022" x2="583.642" y2="305.253" gradientUnits="userSpaceOnUse">
<stop stop-color="white"/>
<stop offset="1" stop-color="#083800"/>
</linearGradient>
<linearGradient id="paint49_linear_6001_18" x1="589.886" y1="301.022" x2="583.642" y2="305.253" gradientUnits="userSpaceOnUse">
<stop stop-color="white"/>
<stop offset="1" stop-color="#083800"/>
</linearGradient>
<linearGradient id="paint50_linear_6001_18" x1="589.886" y1="301.022" x2="583.642" y2="305.253" gradientUnits="userSpaceOnUse">
<stop stop-color="white"/>
<stop offset="1" stop-color="#083800"/>
</linearGradient>
<linearGradient id="paint51_linear_6001_18" x1="589.886" y1="301.022" x2="583.642" y2="305.253" gradientUnits="userSpaceOnUse">
<stop stop-color="white"/>
<stop offset="1" stop-color="#083800"/>
</linearGradient>
<linearGradient id="paint52_linear_6001_18" x1="589.886" y1="301.022" x2="583.642" y2="305.253" gradientUnits="userSpaceOnUse">
<stop stop-color="white"/>
<stop offset="1" stop-color="#083800"/>
</linearGradient>
<linearGradient id="paint53_linear_6001_18" x1="589.886" y1="301.022" x2="583.642" y2="305.253" gradientUnits="userSpaceOnUse">
<stop stop-color="white"/>
<stop offset="1" stop-color="#083800"/>
</linearGradient>
<linearGradient id="paint54_linear_6001_18" x1="589.886" y1="301.022" x2="583.642" y2="305.253" gradientUnits="userSpaceOnUse">
<stop stop-color="white"/>
<stop offset="1" stop-color="#083800"/>
</linearGradient>
<linearGradient id="paint55_linear_6001_18" x1="589.886" y1="301.022" x2="583.642" y2="305.253" gradientUnits="userSpaceOnUse">
<stop stop-color="white"/>
<stop offset="1" stop-color="#083800"/>
</linearGradient>
<linearGradient id="paint56_linear_6001_18" x1="133.886" y1="133.022" x2="127.642" y2="137.253" gradientUnits="userSpaceOnUse">
<stop stop-color="white"/>
<stop offset="1" stop-color="#083800"/>
</linearGradient>
<linearGradient id="paint57_linear_6001_18" x1="133.886" y1="133.022" x2="127.642" y2="137.253" gradientUnits="userSpaceOnUse">
<stop stop-color="white"/>
<stop offset="1" stop-color="#083800"/>
</linearGradient>
<linearGradient id="paint58_linear_6001_18" x1="133.886" y1="133.022" x2="127.642" y2="137.253" gradientUnits="userSpaceOnUse">
<stop stop-color="white"/>
<stop offset="1" stop-color="#083800"/>
</linearGradient>
<linearGradient id="paint59_linear_6001_18" x1="133.886" y1="133.022" x2="127.642" y2="137.253" gradientUnits="userSpaceOnUse">
<stop stop-color="white"/>
<stop offset="1" stop-color="#083800"/>
</linearGradient>
<linearGradient id="paint60_linear_6001_18" x1="133.886" y1="133.022" x2="127.642" y2="137.253" gradientUnits="userSpaceOnUse">
<stop stop-color="white"/>
<stop offset="1" stop-color="#083800"/>
</linearGradient>
<linearGradient id="paint61_linear_6001_18" x1="133.886" y1="133.022" x2="127.642" y2="137.253" gradientUnits="userSpaceOnUse">
<stop stop-color="white"/>
<stop offset="1" stop-color="#083800"/>
</linearGradient>
<linearGradient id="paint62_linear_6001_18" x1="133.886" y1="133.022" x2="127.642" y2="137.253" gradientUnits="userSpaceOnUse">
<stop stop-color="white"/>
<stop offset="1" stop-color="#083800"/>
</linearGradient>
<linearGradient id="paint63_linear_6001_18" x1="133.886" y1="133.022" x2="127.642" y2="137.253" gradientUnits="userSpaceOnUse">
<stop stop-color="white"/>
<stop offset="1" stop-color="#083800"/>
</linearGradient>
<linearGradient id="paint64_linear_6001_18" x1="286.886" y1="-1.97827" x2="280.642" y2="2.25259" gradientUnits="userSpaceOnUse">
<stop stop-color="white"/>
<stop offset="1" stop-color="#083800"/>
</linearGradient>
<linearGradient id="paint65_linear_6001_18" x1="286.886" y1="-1.97827" x2="280.642" y2="2.25259" gradientUnits="userSpaceOnUse">
<stop stop-color="white"/>
<stop offset="1" stop-color="#083800"/>
</linearGradient>
<linearGradient id="paint66_linear_6001_18" x1="286.886" y1="-1.97827" x2="280.642" y2="2.25259" gradientUnits="userSpaceOnUse">
<stop stop-color="white"/>
<stop offset="1" stop-color="#083800"/>
</linearGradient>
<linearGradient id="paint67_linear_6001_18" x1="286.886" y1="-1.97827" x2="280.642" y2="2.25259" gradientUnits="userSpaceOnUse">
<stop stop-color="white"/>
<stop offset="1" stop-color="#083800"/>
</linearGradient>
<linearGradient id="paint68_linear_6001_18" x1="286.886" y1="-1.97827" x2="280.642" y2="2.25259" gradientUnits="userSpaceOnUse">
<stop stop-color="white"/>
<stop offset="1" stop-color="#083800"/>
</linearGradient>
<linearGradient id="paint69_linear_6001_18" x1="286.886" y1="-1.97827" x2="280.642" y2="2.25259" gradientUnits="userSpaceOnUse">
<stop stop-color="white"/>
<stop offset="1" stop-color="#083800"/>
</linearGradient>
<linearGradient id="paint70_linear_6001_18" x1="286.886" y1="-1.97827" x2="280.642" y2="2.25259" gradientUnits="userSpaceOnUse">
<stop stop-color="white"/>
<stop offset="1" stop-color="#083800"/>
</linearGradient>
<linearGradient id="paint71_linear_6001_18" x1="286.886" y1="-1.97827" x2="280.642" y2="2.25259" gradientUnits="userSpaceOnUse">
<stop stop-color="white"/>
<stop offset="1" stop-color="#083800"/>
</linearGradient>
</defs>
</svg>
