<svg width="187.998047" height="15.649658" viewBox="0 0 187.998 15.6497" fill="none" xmlns="http://www.w3.org/2000/svg" xmlns:xlink="http://www.w3.org/1999/xlink">
	<desc>
			Created with Pixso.
	</desc>
	<defs/>
	<path id="Vector" d="M75.07 3.24L83.96 3.24L83.96 0.38L71.53 0.38L71.53 15.27L75.07 15.27L75.07 9.79L82.44 9.79L82.44 6.93L75.07 6.93L75.07 3.24Z" fill="#FFFFFF" fill-opacity="1.000000" fill-rule="nonzero"/>
	<path id="Vector" d="M61.12 0.38L57.59 0.38L57.59 15.27L69.17 15.27L69.17 12.4L61.12 12.4L61.12 0.38Z" fill="#FFFFFF" fill-opacity="1.000000" fill-rule="nonzero"/>
	<path id="Vector" d="M47.17 0.38L43.64 0.38L43.64 15.27L55.22 15.27L55.22 12.4L47.17 12.4L47.17 0.38Z" fill="#FFFFFF" fill-opacity="1.000000" fill-rule="nonzero"/>
	<path id="Vector" d="M33.66 0.38L29.73 0.38L23.94 6.26L22.2 6.26L22.2 0.38L18.66 0.38L18.66 15.27L22.2 15.27L22.2 9.07L23.94 9.07L29.66 15.27L34.25 15.27L26.86 7.29L33.66 0.38Z" fill="#FFFFFF" fill-opacity="1.000000" fill-rule="nonzero"/>
	<path id="Vector" d="M36.3 15.27L39.83 15.27L39.83 0.38L36.3 0.38L36.3 15.27Z" fill="#FFFFFF" fill-opacity="1.000000" fill-rule="nonzero"/>
	<path id="Vector" d="M89.51 9.23L92.26 2.03L92.37 2.03L95.11 9.23L89.51 9.23ZM89.4 0.38L83.72 15.27L87.21 15.27L88.45 12.02L96.17 12.02L97.4 15.27L101.27 15.27L95.57 0.38L89.4 0.38Z" fill="#FFFFFF" fill-opacity="1.000000" fill-rule="nonzero"/>
	<path id="Vector" d="M149.27 0.38L140.26 0.38L140.26 3.8L149.27 3.8L149.27 0.38Z" fill="#FFFFFF" fill-opacity="1.000000" fill-rule="nonzero"/>
	<path id="Vector" d="M164.61 7.6L159.8 7.6L159.8 3.24L164.61 3.24C166.27 3.24 167.29 4.09 167.29 5.43C167.29 6.77 166.27 7.6 164.61 7.6ZM170.96 5.43C170.96 2.32 168.55 0.38 164.61 0.38L156.25 0.38L156.25 15.27L159.8 15.27L159.8 10.46L163.29 10.46L167.29 15.27L171.61 15.27L167.05 9.79C169.52 9.2 170.96 7.64 170.96 5.43Z" fill="#FFFFFF" fill-opacity="1.000000" fill-rule="nonzero"/>
	<path id="Vector" d="M149.28 11.84L153.01 11.84L153.01 3.8L149.28 3.8L149.28 11.84Z" fill="#FFFFFF" fill-opacity="1.000000" fill-rule="nonzero"/>
	<path id="Vector" d="M184.22 0.38L179.99 6.99L175.77 0.38L171.65 0.38L178.05 10.17L178.05 15.27L181.58 15.27L181.58 10.17L187.99 0.38L184.22 0.38Z" fill="#FFFFFF" fill-opacity="1.000000" fill-rule="nonzero"/>
	<path id="Vector" d="M119.85 3.24L125.44 3.24L125.44 15.27L128.97 15.27L128.97 3.24L134.58 3.24L134.58 0.38L119.85 0.38L119.85 3.24Z" fill="#FFFFFF" fill-opacity="1.000000" fill-rule="nonzero"/>
	<path id="Vector" d="M110.55 12.56C107.53 12.56 105.77 10.82 105.77 7.82C105.77 4.82 107.53 3.08 110.55 3.08C112.9 3.08 114.28 4 114.77 5.81L118.62 5.81C118.24 2.34 114.95 0 110.55 0C105.29 0 101.87 3.08 101.87 7.82C101.87 12.58 105.27 15.64 110.55 15.64C115.13 15.64 118.33 13.21 118.66 9.47L114.82 9.47C114.6 11.42 113.03 12.56 110.55 12.56Z" fill="#FFFFFF" fill-opacity="1.000000" fill-rule="nonzero"/>
	<path id="Vector" d="M140.26 15.27L149.27 15.27L149.27 11.85L140.26 11.85L140.26 15.27Z" fill="#FFFFFF" fill-opacity="1.000000" fill-rule="nonzero"/>
	<path id="Vector" d="M136.53 11.84L140.26 11.84L140.26 3.8L136.53 3.8L136.53 11.84Z" fill="#FFFFFF" fill-opacity="1.000000" fill-rule="nonzero"/>
	<path id="Vector" d="M9.85 6.23L6.16 5.83C4.87 5.7 4.15 5.36 4.15 4.42C4.15 3.35 5.27 2.77 7.71 2.77C10.15 2.77 11.42 3.44 11.58 4.73L15.08 4.73C15.08 1.78 12.31 0 7.64 0C3.41 0 0.44 1.78 0.44 4.53C0.44 7.1 2.3 8.6 5.99 9L9.52 9.38C11.13 9.56 12.02 9.99 12.02 10.97C12.02 12.29 10.77 12.81 7.95 12.81C5.16 12.81 3.59 11.96 3.59 10.44L0 10.44C0 13.92 2.59 15.64 7.86 15.64C13.01 15.64 15.82 13.92 15.82 10.86C15.82 8.22 13.79 6.66 9.85 6.23Z" fill="#FFFFFF" fill-opacity="1.000000" fill-rule="nonzero"/>
</svg>
